<svg version="1.1" xmlns="http://www.w3.org/2000/svg" xmlns:xlink="http://www.w3.org/1999/xlink" width="2251.42626953125" height="1429"><defs/><g><g transform="translate(-62,-70) scale(1,1)"><path fill="#C0C0C0" stroke="none" d="M 79 104.5 C 79 99.2532944 83.2532944 95 88.5 95 C 93.7467056 95 98 99.2532944 98 104.5 C 98 109.7467056 93.7467056 114 88.5 114 C 83.2532944 114 79 109.7467056 79 104.5 Z" opacity="0.2"/></g><g transform="translate(-62,-70) scale(1,1)"><path fill="#000000" stroke="none" d="M 72 97.5 C 72 92.2532944 76.2532944 88 81.5 88 C 86.7467056 88 91 92.2532944 91 97.5 C 91 102.7467056 86.7467056 107 81.5 107 C 76.2532944 107 72 102.7467056 72 97.5 Z"/></g><g transform="translate(-62,-70) scale(1,1)"><path fill="#C0C0C0" stroke="none" d="M 233 87 L 435.07177734375 87 Q 445.07177734375 87 445.07177734375 97 L 445.07177734375 117 Q 445.07177734375 127 435.07177734375 127 L 233 127 Q 223 127 223 117 L 223 97 Q 223 87 233 87 Z" opacity="0.2"/></g><g transform="translate(-62,-70) scale(1,1)"><path fill="#ffffff" stroke="none" d="M 226 80 L 428.07177734375 80 Q 438.07177734375 80 438.07177734375 90 L 438.07177734375 110 Q 438.07177734375 120 428.07177734375 120 L 226 120 Q 216 120 216 110 L 216 90 Q 216 80 226 80 Z"/></g><g transform="translate(-62,-70) scale(1,1)"><path fill="none" stroke="#000000" d="M 226 80 L 428.07177734375 80 Q 438.07177734375 80 438.07177734375 90 L 438.07177734375 110 Q 438.07177734375 120 428.07177734375 120 L 226 120 Q 216 120 216 110 L 216 90 Q 216 80 226 80 Z" stroke-miterlimit="10"/></g><g transform="translate(-62,-70) scale(1,1)"><g><path fill="none" stroke="none"/><text fill="#000000" stroke="none" font-family="Arial" font-size="13px" font-style="normal" font-weight="bold" text-decoration="none" x="228.041015625" y="99.5">Modulo Registrazione Sottomesso</text></g></g><g transform="translate(-62,-70) scale(1,1)"><path fill="#C0C0C0" stroke="none" d="M 633 87 L 761.40087890625 87 Q 771.40087890625 87 771.40087890625 97 L 771.40087890625 117 Q 771.40087890625 127 761.40087890625 127 L 633 127 Q 623 127 623 117 L 623 97 Q 623 87 633 87 Z" opacity="0.2"/></g><g transform="translate(-62,-70) scale(1,1)"><path fill="#ffffff" stroke="none" d="M 626 80 L 754.40087890625 80 Q 764.40087890625 80 764.40087890625 90 L 764.40087890625 110 Q 764.40087890625 120 754.40087890625 120 L 626 120 Q 616 120 616 110 L 616 90 Q 616 80 626 80 Z"/></g><g transform="translate(-62,-70) scale(1,1)"><path fill="none" stroke="#000000" d="M 626 80 L 754.40087890625 80 Q 764.40087890625 80 764.40087890625 90 L 764.40087890625 110 Q 764.40087890625 120 754.40087890625 120 L 626 120 Q 616 120 616 110 L 616 90 Q 616 80 626 80 Z" stroke-miterlimit="10"/></g><g transform="translate(-62,-70) scale(1,1)"><g><path fill="none" stroke="none"/><text fill="#000000" stroke="none" font-family="Arial" font-size="13px" font-style="normal" font-weight="bold" text-decoration="none" x="625.5400390625" y="99.5">Controllo Campi Email</text></g></g><g transform="translate(-62,-70) scale(1,1)"><path fill="none" stroke="#000000" d="M 439 100 L 615 100" stroke-miterlimit="10"/></g><g transform="translate(-62,-70) scale(1,1)"><path fill="none" stroke="#000000" d="M 604.8373251423759 104.20951775601598 L 615 100 L 604.8373251423758 95.79048224398402" stroke-miterlimit="10"/></g><g transform="translate(-62,-70) scale(1,1)"><path fill="#C0C0C0" stroke="none" d="M 687 256.5 L 698.5 247 L 709 256.5 L 698.5 265 L 687 256.5" opacity="0.2"/></g><g transform="translate(-62,-70) scale(1,1)"><path fill="#ffffff" stroke="none" d="M 680 249 L 691 240 L 702 249 L 691 258 L 680 249"/></g><g transform="translate(-62,-70) scale(1,1)"><path fill="none" stroke="#000000" d="M 680 249 L 691 240 L 702 249 L 691 258 L 680 249 L 680 249" stroke-miterlimit="10"/></g><g transform="translate(-62,-70) scale(1,1)"><path fill="none" stroke="#000000" d="M 690 121 L 691 239" stroke-miterlimit="10"/></g><g transform="translate(-62,-70) scale(1,1)"><path fill="none" stroke="#000000" d="M 686.7045121256399 228.8733626547987 L 691 239 L 695.1232453329442 228.80201745812664" stroke-miterlimit="10"/></g><g transform="translate(-62,-70) scale(1,1)"><path fill="#C0C0C0" stroke="none" d="M 897 231 L 1052.130859375 231 Q 1062.130859375 231 1062.130859375 241 L 1062.130859375 261 Q 1062.130859375 271 1052.130859375 271 L 897 271 Q 887 271 887 261 L 887 241 Q 887 231 897 231 Z" opacity="0.2"/></g><g transform="translate(-62,-70) scale(1,1)"><path fill="#ffffff" stroke="none" d="M 890 224 L 1045.130859375 224 Q 1055.130859375 224 1055.130859375 234 L 1055.130859375 254 Q 1055.130859375 264 1045.130859375 264 L 890 264 Q 880 264 880 254 L 880 234 Q 880 224 890 224 Z"/></g><g transform="translate(-62,-70) scale(1,1)"><path fill="none" stroke="#000000" d="M 890 224 L 1045.130859375 224 Q 1055.130859375 224 1055.130859375 234 L 1055.130859375 254 Q 1055.130859375 264 1045.130859375 264 L 890 264 Q 880 264 880 254 L 880 234 Q 880 224 890 224 Z" stroke-miterlimit="10"/></g><g transform="translate(-62,-70) scale(1,1)"><g><path fill="none" stroke="none"/><text fill="#000000" stroke="none" font-family="Arial" font-size="13px" font-style="normal" font-weight="bold" text-decoration="none" x="890.619140625" y="243.5">Controllo Campi Password</text></g></g><g transform="translate(-62,-70) scale(1,1)"><path fill="none" stroke="#000000" d="M 703 249 L 879 246" stroke-miterlimit="10"/></g><g transform="translate(-62,-70) scale(1,1)"><path fill="none" stroke="#000000" d="M 868.9105439127189 250.38210860920034 L 879 246 L 868.7670584687381 241.9642958956612" stroke-miterlimit="10"/></g><g transform="translate(-62,-70) scale(1,1)"><g><path fill="none" stroke="none"/><text fill="#000000" stroke="none" font-family="Arial" font-size="13px" font-style="normal" font-weight="normal" text-decoration="none" x="733.42724609375" y="235.5"> [uguali]</text></g></g><g transform="translate(-62,-70) scale(1,1)"><path fill="#C0C0C0" stroke="none" d="M 967 344.5 L 978.5 335 L 989 344.5 L 978.5 353 L 967 344.5" opacity="0.2"/></g><g transform="translate(-62,-70) scale(1,1)"><path fill="#ffffff" stroke="none" d="M 960 337 L 971 328 L 982 337 L 971 346 L 960 337"/></g><g transform="translate(-62,-70) scale(1,1)"><path fill="none" stroke="#000000" d="M 960 337 L 971 328 L 982 337 L 971 346 L 960 337 L 960 337" stroke-miterlimit="10"/></g><g transform="translate(-62,-70) scale(1,1)"><path fill="none" stroke="#000000" d="M 968 265 L 971 327" stroke-miterlimit="10"/></g><g transform="translate(-62,-70) scale(1,1)"><path fill="none" stroke="#000000" d="M 966.3042338231216 317.05264959840633 L 971 327 L 974.7134308172685 316.6457529696573" stroke-miterlimit="10"/></g><g transform="translate(-62,-70) scale(1,1)"><path fill="#C0C0C0" stroke="none" d="M 1161 319 L 1319.01904296875 319 Q 1329.01904296875 319 1329.01904296875 329 L 1329.01904296875 349 Q 1329.01904296875 359 1319.01904296875 359 L 1161 359 Q 1151 359 1151 349 L 1151 329 Q 1151 319 1161 319 Z" opacity="0.2"/></g><g transform="translate(-62,-70) scale(1,1)"><path fill="#ffffff" stroke="none" d="M 1154 312 L 1312.01904296875 312 Q 1322.01904296875 312 1322.01904296875 322 L 1322.01904296875 342 Q 1322.01904296875 352 1312.01904296875 352 L 1154 352 Q 1144 352 1144 342 L 1144 322 Q 1144 312 1154 312 Z"/></g><g transform="translate(-62,-70) scale(1,1)"><path fill="none" stroke="#000000" d="M 1154 312 L 1312.01904296875 312 Q 1322.01904296875 312 1322.01904296875 322 L 1322.01904296875 342 Q 1322.01904296875 352 1312.01904296875 352 L 1154 352 Q 1144 352 1144 342 L 1144 322 Q 1144 312 1154 312 Z" stroke-miterlimit="10"/></g><g transform="translate(-62,-70) scale(1,1)"><g><path fill="none" stroke="none"/><text fill="#000000" stroke="none" font-family="Arial" font-size="13px" font-style="normal" font-weight="bold" text-decoration="none" x="1154.596923828125" y="331.5">Validazione Sintattica Input</text></g></g><g transform="translate(-62,-70) scale(1,1)"><path fill="none" stroke="#000000" d="M 983 337 L 1143 334" stroke-miterlimit="10"/></g><g transform="translate(-62,-70) scale(1,1)"><path fill="none" stroke="#000000" d="M 1132.9180256666175 338.39929466403635 L 1143 334 L 1132.7601964917387 329.98173867049445" stroke-miterlimit="10"/></g><g transform="translate(-62,-70) scale(1,1)"><g><path fill="none" stroke="none"/><text fill="#000000" stroke="none" font-family="Arial" font-size="13px" font-style="normal" font-weight="normal" text-decoration="none" x="1023.5" y="325.5"> [uguali]</text></g></g><g transform="translate(-62,-70) scale(1,1)"><path fill="#C0C0C0" stroke="none" d="M 967 875.5 C 967 868.59644 972.59644 863 979.5 863 C 986.40356 863 992 868.59644 992 875.5 C 992 882.40356 986.40356 888 979.5 888 C 972.59644 888 967 882.40356 967 875.5 Z" opacity="0.2"/></g><g transform="translate(-62,-70) scale(1,1)"><path fill="#ffffff" stroke="none" d="M 960 868.5 C 960 861.59644 965.59644 856 972.5 856 C 979.40356 856 985 861.59644 985 868.5 C 985 875.40356 979.40356 881 972.5 881 C 965.59644 881 960 875.40356 960 868.5 Z"/></g><g transform="translate(-62,-70) scale(1,1)"><path fill="none" stroke="#000000" d="M 960 868.5 C 960 861.59644 965.59644 856 972.5 856 C 979.40356 856 985 861.59644 985 868.5 C 985 875.40356 979.40356 881 972.5 881 C 965.59644 881 960 875.40356 960 868.5 Z" stroke-miterlimit="10"/></g><g transform="translate(-62,-70) scale(1,1)"><path fill="none" stroke="#000000" d="M 963 859 L 981 877" stroke-miterlimit="10"/></g><g transform="translate(-62,-70) scale(1,1)"><path fill="none" stroke="#000000" d="M 981 859 L 963 877" stroke-miterlimit="10"/></g><g transform="translate(-62,-70) scale(1,1)"><path fill="#C0C0C0" stroke="none" d="M 1231 440.5 L 1242.5 431 L 1253 440.5 L 1242.5 449 L 1231 440.5" opacity="0.2"/></g><g transform="translate(-62,-70) scale(1,1)"><path fill="#ffffff" stroke="none" d="M 1224 433 L 1235 424 L 1246 433 L 1235 442 L 1224 433"/></g><g transform="translate(-62,-70) scale(1,1)"><path fill="none" stroke="#000000" d="M 1224 433 L 1235 424 L 1246 433 L 1235 442 L 1224 433 L 1224 433" stroke-miterlimit="10"/></g><g transform="translate(-62,-70) scale(1,1)"><path fill="none" stroke="#000000" d="M 1233 353 L 1235 423" stroke-miterlimit="10"/></g><g transform="translate(-62,-70) scale(1,1)"><path fill="none" stroke="#000000" d="M 1230.501955667129 412.96169351038094 L 1235 423 L 1238.917556940588 412.7212477597107" stroke-miterlimit="10"/></g><g transform="translate(-62,-70) scale(1,1)"><path fill="#C0C0C0" stroke="none" d="M 1681 415 L 1855.6435546875 415 Q 1865.6435546875 415 1865.6435546875 425 L 1865.6435546875 445 Q 1865.6435546875 455 1855.6435546875 455 L 1681 455 Q 1671 455 1671 445 L 1671 425 Q 1671 415 1681 415 Z" opacity="0.2"/></g><g transform="translate(-62,-70) scale(1,1)"><path fill="#ffffff" stroke="none" d="M 1674 408 L 1848.6435546875 408 Q 1858.6435546875 408 1858.6435546875 418 L 1858.6435546875 438 Q 1858.6435546875 448 1848.6435546875 448 L 1674 448 Q 1664 448 1664 438 L 1664 418 Q 1664 408 1674 408 Z"/></g><g transform="translate(-62,-70) scale(1,1)"><path fill="none" stroke="#000000" d="M 1674 408 L 1848.6435546875 408 Q 1858.6435546875 408 1858.6435546875 418 L 1858.6435546875 438 Q 1858.6435546875 448 1848.6435546875 448 L 1674 448 Q 1664 448 1664 438 L 1664 418 Q 1664 408 1674 408 Z" stroke-miterlimit="10"/></g><g transform="translate(-62,-70) scale(1,1)"><g><path fill="none" stroke="none"/><text fill="#000000" stroke="none" font-family="Arial" font-size="13px" font-style="normal" font-weight="bold" text-decoration="none" x="1675.339599609375" y="427.5">Controllo Email già Registrata</text></g></g><g transform="translate(-62,-70) scale(1,1)"><path fill="none" stroke="#000000" d="M 1247 433 L 1663 429" stroke-miterlimit="10"/></g><g transform="translate(-62,-70) scale(1,1)"><path fill="none" stroke="#000000" d="M 1652.8782691692868 433.30703668321877 L 1663 429 L 1652.7973206467345 424.888390337781" stroke-miterlimit="10"/></g><g transform="translate(-62,-70) scale(1,1)"><g><path fill="none" stroke="none"/><text fill="#000000" stroke="none" font-family="Arial" font-size="13px" font-style="normal" font-weight="normal" text-decoration="none" x="1374.5" y="421.5"> [validazione riuscita]</text></g></g><g transform="translate(-62,-70) scale(1,1)"><path fill="#C0C0C0" stroke="none" d="M 1759 584.5 L 1770.5 575 L 1781 584.5 L 1770.5 593 L 1759 584.5" opacity="0.2"/></g><g transform="translate(-62,-70) scale(1,1)"><path fill="#ffffff" stroke="none" d="M 1752 577 L 1763 568 L 1774 577 L 1763 586 L 1752 577"/></g><g transform="translate(-62,-70) scale(1,1)"><path fill="none" stroke="#000000" d="M 1752 577 L 1763 568 L 1774 577 L 1763 586 L 1752 577 L 1752 577" stroke-miterlimit="10"/></g><g transform="translate(-62,-70) scale(1,1)"><path fill="none" stroke="#000000" d="M 1761 449 L 1763 567" stroke-miterlimit="10"/></g><g transform="translate(-62,-70) scale(1,1)"><path fill="none" stroke="#000000" d="M 1758.6188627653046 556.9101220755272 L 1763 567 L 1767.0366892537772 556.7674470502988" stroke-miterlimit="10"/></g><g transform="translate(-62,-70) scale(1,1)"><path fill="#C0C0C0" stroke="none" d="M 1521 679 L 1672.55712890625 679 Q 1682.55712890625 679 1682.55712890625 689 L 1682.55712890625 709 Q 1682.55712890625 719 1672.55712890625 719 L 1521 719 Q 1511 719 1511 709 L 1511 689 Q 1511 679 1521 679 Z" opacity="0.2"/></g><g transform="translate(-62,-70) scale(1,1)"><path fill="#ffffff" stroke="none" d="M 1514 672 L 1665.55712890625 672 Q 1675.55712890625 672 1675.55712890625 682 L 1675.55712890625 702 Q 1675.55712890625 712 1665.55712890625 712 L 1514 712 Q 1504 712 1504 702 L 1504 682 Q 1504 672 1514 672 Z"/></g><g transform="translate(-62,-70) scale(1,1)"><path fill="none" stroke="#000000" d="M 1514 672 L 1665.55712890625 672 Q 1675.55712890625 672 1675.55712890625 682 L 1675.55712890625 702 Q 1675.55712890625 712 1665.55712890625 712 L 1514 712 Q 1504 712 1504 702 L 1504 682 Q 1504 672 1514 672 Z" stroke-miterlimit="10"/></g><g transform="translate(-62,-70) scale(1,1)"><g><path fill="none" stroke="none"/><text fill="#000000" stroke="none" font-family="Arial" font-size="13px" font-style="normal" font-weight="bold" text-decoration="none" x="1513.181396484375" y="691.5">Visualizzazione Eccezione</text></g></g><g transform="translate(-62,-70) scale(1,1)"><path fill="none" stroke="#000000" d="M 1751 585 L 1621 671" stroke-miterlimit="10"/></g><g transform="translate(-62,-70) scale(1,1)"><path fill="none" stroke="#000000" d="M 1627.1533231826463 661.882071846636 L 1621 671 L 1631.7984053768969 668.9037077216661" stroke-miterlimit="10"/></g><g transform="translate(-62,-70) scale(1,1)"><g><path fill="none" stroke="none"/><text fill="#000000" stroke="none" font-family="Arial" font-size="13px" font-style="normal" font-weight="normal" text-decoration="none" x="1615.5" y="595.5"> [email esistente]</text></g></g><g transform="translate(-62,-70) scale(1,1)"><path fill="#C0C0C0" stroke="none" d="M 1969 695 L 2106.79541015625 695 Q 2116.79541015625 695 2116.79541015625 705 L 2116.79541015625 725 Q 2116.79541015625 735 2106.79541015625 735 L 1969 735 Q 1959 735 1959 725 L 1959 705 Q 1959 695 1969 695 Z" opacity="0.2"/></g><g transform="translate(-62,-70) scale(1,1)"><path fill="#ffffff" stroke="none" d="M 1962 688 L 2099.79541015625 688 Q 2109.79541015625 688 2109.79541015625 698 L 2109.79541015625 718 Q 2109.79541015625 728 2099.79541015625 728 L 1962 728 Q 1952 728 1952 718 L 1952 698 Q 1952 688 1962 688 Z"/></g><g transform="translate(-62,-70) scale(1,1)"><path fill="none" stroke="#000000" d="M 1962 688 L 2099.79541015625 688 Q 2109.79541015625 688 2109.79541015625 698 L 2109.79541015625 718 Q 2109.79541015625 728 2099.79541015625 728 L 1962 728 Q 1952 728 1952 718 L 1952 698 Q 1952 688 1962 688 Z" stroke-miterlimit="10"/></g><g transform="translate(-62,-70) scale(1,1)"><g><path fill="none" stroke="none"/><text fill="#000000" stroke="none" font-family="Arial" font-size="13px" font-style="normal" font-weight="bold" text-decoration="none" x="1960.79736328125" y="707.5">Creazione nuovo Utente</text></g></g><g transform="translate(-62,-70) scale(1,1)"><path fill="none" stroke="#000000" d="M 1775 583 L 1987 687" stroke-miterlimit="10"/></g><g transform="translate(-62,-70) scale(1,1)"><path fill="none" stroke="#000000" d="M 1976.0220813031196 686.3033644534729 L 1987 687 L 1979.7300349650861 678.7448435271564" stroke-miterlimit="10"/></g><g transform="translate(-62,-70) scale(1,1)"><g><path fill="none" stroke="none"/><text fill="#000000" stroke="none" font-family="Arial" font-size="13px" font-style="normal" font-weight="normal" text-decoration="none" x="1831.5" y="604.5"> [email inesistente]</text></g></g><g transform="translate(-62,-70) scale(1,1)"><path fill="#C0C0C0" stroke="none" d="M 913 719 L 1039.99169921875 719 Q 1049.99169921875 719 1049.99169921875 729 L 1049.99169921875 749 Q 1049.99169921875 759 1039.99169921875 759 L 913 759 Q 903 759 903 749 L 903 729 Q 903 719 913 719 Z" opacity="0.2"/></g><g transform="translate(-62,-70) scale(1,1)"><path fill="#ffffff" stroke="none" d="M 906 712 L 1032.99169921875 712 Q 1042.99169921875 712 1042.99169921875 722 L 1042.99169921875 742 Q 1042.99169921875 752 1032.99169921875 752 L 906 752 Q 896 752 896 742 L 896 722 Q 896 712 906 712 Z"/></g><g transform="translate(-62,-70) scale(1,1)"><path fill="none" stroke="#000000" d="M 906 712 L 1032.99169921875 712 Q 1042.99169921875 712 1042.99169921875 722 L 1042.99169921875 742 Q 1042.99169921875 752 1032.99169921875 752 L 906 752 Q 896 752 896 742 L 896 722 Q 896 712 906 712 Z" stroke-miterlimit="10"/></g><g transform="translate(-62,-70) scale(1,1)"><g><path fill="none" stroke="none"/><text fill="#000000" stroke="none" font-family="Arial" font-size="13px" font-style="normal" font-weight="bold" text-decoration="none" x="904.8291015625" y="731.5">Visualizzazione Errore</text></g></g><g transform="translate(-62,-70) scale(1,1)"><path fill="#C0C0C0" stroke="none" d="M 967 608.5 L 978.5 599 L 989 608.5 L 978.5 617 L 967 608.5" opacity="0.2"/></g><g transform="translate(-62,-70) scale(1,1)"><path fill="#ffffff" stroke="none" d="M 960 601 L 971 592 L 982 601 L 971 610 L 960 601"/></g><g transform="translate(-62,-70) scale(1,1)"><path fill="none" stroke="#000000" d="M 960 601 L 971 592 L 982 601 L 971 610 L 960 601 L 960 601" stroke-miterlimit="10"/></g><g transform="translate(-62,-70) scale(1,1)"><path fill="none" stroke="#000000" d="M 699 259 L 963 591" stroke-miterlimit="10"/></g><g transform="translate(-62,-70) scale(1,1)"><path fill="none" stroke="#000000" d="M 953.3800169755198 585.6655903223775 L 963 591 L 959.9696420251646 580.4256475118166" stroke-miterlimit="10"/></g><g transform="translate(-62,-70) scale(1,1)"><g><path fill="none" stroke="none"/><text fill="#000000" stroke="none" font-family="Arial" font-size="13px" font-style="normal" font-weight="normal" text-decoration="none" x="659.983154296875" y="307.5"> [diversi]</text></g></g><g transform="translate(-62,-70) scale(1,1)"><path fill="none" stroke="#000000" d="M 971 347 L 971 591" stroke-miterlimit="10"/></g><g transform="translate(-62,-70) scale(1,1)"><path fill="none" stroke="#000000" d="M 966.790482243984 580.8373251423759 L 971 591 L 975.209517756016 580.8373251423759" stroke-miterlimit="10"/></g><g transform="translate(-62,-70) scale(1,1)"><g><path fill="none" stroke="none"/><text fill="#000000" stroke="none" font-family="Arial" font-size="13px" font-style="normal" font-weight="normal" text-decoration="none" x="918.5" y="395.5"> [diversi]</text></g></g><g transform="translate(-62,-70) scale(1,1)"><path fill="none" stroke="#000000" d="M 1223 441 L 983 593" stroke-miterlimit="10"/></g><g transform="translate(-62,-70) scale(1,1)"><path fill="none" stroke="#000000" d="M 989.3333103422374 584.0061587678618 L 983 593 L 993.837932814515 591.118720566195" stroke-miterlimit="10"/></g><g transform="translate(-62,-70) scale(1,1)"><g><path fill="none" stroke="none"/><text fill="#000000" stroke="none" font-family="Arial" font-size="13px" font-style="normal" font-weight="normal" text-decoration="none" x="1087.5" y="539.5"> [validazione fallita]</text></g></g><g transform="translate(-62,-70) scale(1,1)"><path fill="none" stroke="#000000" d="M 971 611 L 969 711" stroke-miterlimit="10"/></g><g transform="translate(-62,-70) scale(1,1)"><path fill="none" stroke="#000000" d="M 964.9945367536925 700.755183545691 L 969 711 L 973.4118889635959 700.9235305898891" stroke-miterlimit="10"/></g><g transform="translate(-62,-70) scale(1,1)"><path fill="none" stroke="#000000" d="M 969 753 L 972 855" stroke-miterlimit="10"/></g><g transform="translate(-62,-70) scale(1,1)"><path fill="none" stroke="#000000" d="M 967.4935287866887 844.9654737429415 L 972 855 L 975.9089252082061 844.7179620834851" stroke-miterlimit="10"/></g><g transform="translate(-62,-70) scale(1,1)"><path fill="#C0C0C0" stroke="none" d="M 1583 995.5 C 1583 988.59644 1588.59644 983 1595.5 983 C 1602.40356 983 1608 988.59644 1608 995.5 C 1608 1002.40356 1602.40356 1008 1595.5 1008 C 1588.59644 1008 1583 1002.40356 1583 995.5 Z" opacity="0.2"/></g><g transform="translate(-62,-70) scale(1,1)"><path fill="#ffffff" stroke="none" d="M 1576 988.5 C 1576 981.59644 1581.59644 976 1588.5 976 C 1595.40356 976 1601 981.59644 1601 988.5 C 1601 995.40356 1595.40356 1001 1588.5 1001 C 1581.59644 1001 1576 995.40356 1576 988.5 Z"/></g><g transform="translate(-62,-70) scale(1,1)"><path fill="none" stroke="#000000" d="M 1576 988.5 C 1576 981.59644 1581.59644 976 1588.5 976 C 1595.40356 976 1601 981.59644 1601 988.5 C 1601 995.40356 1595.40356 1001 1588.5 1001 C 1581.59644 1001 1576 995.40356 1576 988.5 Z" stroke-miterlimit="10"/></g><g transform="translate(-62,-70) scale(1,1)"><path fill="none" stroke="#000000" d="M 1579 979 L 1597 997" stroke-miterlimit="10"/></g><g transform="translate(-62,-70) scale(1,1)"><path fill="none" stroke="#000000" d="M 1597 979 L 1579 997" stroke-miterlimit="10"/></g><g transform="translate(-62,-70) scale(1,1)"><path fill="none" stroke="#000000" d="M 1589 713 L 1588 975" stroke-miterlimit="10"/></g><g transform="translate(-62,-70) scale(1,1)"><path fill="none" stroke="#000000" d="M 1583.8293014584 964.8213324214269 L 1588 975 L 1592.2482756472025 964.8534659106971" stroke-miterlimit="10"/></g><g transform="translate(-62,-70) scale(1,1)"><path fill="#C0C0C0" stroke="none" d="M 1969 1127 L 2147.998046875 1127 Q 2157.998046875 1127 2157.998046875 1137 L 2157.998046875 1157 Q 2157.998046875 1167 2147.998046875 1167 L 1969 1167 Q 1959 1167 1959 1157 L 1959 1137 Q 1959 1127 1969 1127 Z" opacity="0.2"/></g><g transform="translate(-62,-70) scale(1,1)"><path fill="#ffffff" stroke="none" d="M 1962 1120 L 2140.998046875 1120 Q 2150.998046875 1120 2150.998046875 1130 L 2150.998046875 1150 Q 2150.998046875 1160 2140.998046875 1160 L 1962 1160 Q 1952 1160 1952 1150 L 1952 1130 Q 1952 1120 1962 1120 Z"/></g><g transform="translate(-62,-70) scale(1,1)"><path fill="none" stroke="#000000" d="M 1962 1120 L 2140.998046875 1120 Q 2150.998046875 1120 2150.998046875 1130 L 2150.998046875 1150 Q 2150.998046875 1160 2140.998046875 1160 L 1962 1160 Q 1952 1160 1952 1150 L 1952 1130 Q 1952 1120 1962 1120 Z" stroke-miterlimit="10"/></g><g transform="translate(-62,-70) scale(1,1)"><g><path fill="none" stroke="none"/><text fill="#000000" stroke="none" font-family="Arial" font-size="13px" font-style="normal" font-weight="bold" text-decoration="none" x="1962.971435546875" y="1139.5">Salvataggio persistente Utente</text></g></g><g transform="translate(-62,-70) scale(1,1)"><path fill="#C0C0C0" stroke="none" d="M 2023 784.5 L 2034.5 775 L 2045 784.5 L 2034.5 793 L 2023 784.5" opacity="0.2"/></g><g transform="translate(-62,-70) scale(1,1)"><path fill="#ffffff" stroke="none" d="M 2016 777 L 2027 768 L 2038 777 L 2027 786 L 2016 777"/></g><g transform="translate(-62,-70) scale(1,1)"><path fill="none" stroke="#000000" d="M 2016 777 L 2027 768 L 2038 777 L 2027 786 L 2016 777 L 2016 777" stroke-miterlimit="10"/></g><g transform="translate(-62,-70) scale(1,1)"><path fill="none" stroke="#000000" d="M 2029 729 L 2027 767" stroke-miterlimit="10"/></g><g transform="translate(-62,-70) scale(1,1)"><path fill="none" stroke="#000000" d="M 2023.3304388478734 756.6301243522015 L 2027 767 L 2031.7378378159722 757.0726190347331" stroke-miterlimit="10"/></g><g transform="translate(-62,-70) scale(1,1)"><rect fill="#C0C0C0" stroke="none" x="1863" y="863" width="92.7890625" height="24" opacity="0.2"/></g><g transform="translate(-62,-70) scale(1,1)"><rect fill="#ffffff" stroke="none" x="1856" y="856" width="92.7890625" height="24"/></g><g transform="translate(-62,-70) scale(1,1)"><path fill="none" stroke="#000000" d="M 1856 856 L 1948.7890625 856 L 1948.7890625 880 L 1856 880 L 1856 856 Z Z" stroke-miterlimit="10"/></g><g transform="translate(-62,-70) scale(1,1)"><rect fill="#ffffff" stroke="none" x="1856" y="856" width="92.7890625" height="24"/></g><g transform="translate(-62,-70) scale(1,1)"><path fill="none" stroke="#000000" d="M 1856 856 L 1948.7890625 856 L 1948.7890625 880 L 1856 880 L 1856 856 Z Z" stroke-miterlimit="10"/></g><g transform="translate(-62,-70) scale(1,1)"><g><path fill="none" stroke="none"/><text fill="#000000" stroke="none" font-family="Arial" font-size="13px" font-style="normal" font-weight="bold" text-decoration="none" x="1863.37548828125" y="875.5">Consumatore</text></g></g><g transform="translate(-62,-70) scale(1,1)"><rect fill="#C0C0C0" stroke="none" x="2151" y="863" width="89.18359375" height="24" opacity="0.2"/></g><g transform="translate(-62,-70) scale(1,1)"><rect fill="#ffffff" stroke="none" x="2144" y="856" width="89.18359375" height="24"/></g><g transform="translate(-62,-70) scale(1,1)"><path fill="none" stroke="#000000" d="M 2144 856 L 2233.18359375 856 L 2233.18359375 880 L 2144 880 L 2144 856 Z Z" stroke-miterlimit="10"/></g><g transform="translate(-62,-70) scale(1,1)"><rect fill="#ffffff" stroke="none" x="2144" y="856" width="89.18359375" height="24"/></g><g transform="translate(-62,-70) scale(1,1)"><path fill="none" stroke="#000000" d="M 2144 856 L 2233.18359375 856 L 2233.18359375 880 L 2144 880 L 2144 856 Z Z" stroke-miterlimit="10"/></g><g transform="translate(-62,-70) scale(1,1)"><g><path fill="none" stroke="none"/><text fill="#000000" stroke="none" font-family="Arial" font-size="13px" font-style="normal" font-weight="bold" text-decoration="none" x="2158.240478515625" y="875.5">Produttore</text></g></g><g transform="translate(-62,-70) scale(1,1)"><path fill="none" stroke="#000000" d="M 2015 786 L 1920 855" stroke-miterlimit="10"/></g><g transform="translate(-62,-70) scale(1,1)"><path fill="none" stroke="#000000" d="M 1925.748876169981 845.6218113272218 L 1920 855 L 1930.6964501297637 852.433688518227" stroke-miterlimit="10"/></g><g transform="translate(-62,-70) scale(1,1)"><g><path fill="none" stroke="none"/><text fill="#000000" stroke="none" font-family="Arial" font-size="13px" font-style="normal" font-weight="normal" text-decoration="none" x="1855.5" y="787.5"> [tipo == consumatore]</text></g></g><g transform="translate(-62,-70) scale(1,1)"><path fill="none" stroke="#000000" d="M 2039 784 L 2165 855" stroke-miterlimit="10"/></g><g transform="translate(-62,-70) scale(1,1)"><path fill="none" stroke="#000000" d="M 2154.0796903257738 853.6783205309144 L 2165 855 L 2158.212743491843 846.3436064615522" stroke-miterlimit="10"/></g><g transform="translate(-62,-70) scale(1,1)"><g><path fill="none" stroke="none"/><text fill="#000000" stroke="none" font-family="Arial" font-size="13px" font-style="normal" font-weight="normal" text-decoration="none" x="2071.68701171875" y="780.5"> [tipo == produttore]</text></g></g><g transform="translate(-62,-70) scale(1,1)"><path fill="#C0C0C0" stroke="none" d="M 2047 1016.5 L 2058.5 1007 L 2069 1016.5 L 2058.5 1025 L 2047 1016.5" opacity="0.2"/></g><g transform="translate(-62,-70) scale(1,1)"><path fill="#ffffff" stroke="none" d="M 2040 1009 L 2051 1000 L 2062 1009 L 2051 1018 L 2040 1009"/></g><g transform="translate(-62,-70) scale(1,1)"><path fill="none" stroke="#000000" d="M 2040 1009 L 2051 1000 L 2062 1009 L 2051 1018 L 2040 1009 L 2040 1009" stroke-miterlimit="10"/></g><g transform="translate(-62,-70) scale(1,1)"><path fill="none" stroke="#000000" d="M 1916 881 L 2040 999" stroke-miterlimit="10"/></g><g transform="translate(-62,-70) scale(1,1)"><path fill="none" stroke="#000000" d="M 2029.7361111172897 995.043665205853 L 2040 999 L 2035.539885731276 988.9447834081047" stroke-miterlimit="10"/></g><g transform="translate(-62,-70) scale(1,1)"><path fill="none" stroke="#000000" d="M 2175 881 L 2061 999" stroke-miterlimit="10"/></g><g transform="translate(-62,-70) scale(1,1)"><path fill="none" stroke="#000000" d="M 2065.033699729338 988.7662682029703 L 2061 999 L 2071.0885975824094 994.6159152813613" stroke-miterlimit="10"/></g><g transform="translate(-62,-70) scale(1,1)"><path fill="none" stroke="#000000" d="M 2051 1019 L 2051 1119" stroke-miterlimit="10"/></g><g transform="translate(-62,-70) scale(1,1)"><path fill="none" stroke="#000000" d="M 2046.7904822439841 1108.837325142376 L 2051 1119 L 2055.209517756016 1108.837325142376" stroke-miterlimit="10"/></g><g transform="translate(-62,-70) scale(1,1)"><path fill="#C0C0C0" stroke="none" d="M 2047 1248.5 L 2058.5 1239 L 2069 1248.5 L 2058.5 1257 L 2047 1248.5" opacity="0.2"/></g><g transform="translate(-62,-70) scale(1,1)"><path fill="#ffffff" stroke="none" d="M 2040 1241 L 2051 1232 L 2062 1241 L 2051 1250 L 2040 1241"/></g><g transform="translate(-62,-70) scale(1,1)"><path fill="none" stroke="#000000" d="M 2040 1241 L 2051 1232 L 2062 1241 L 2051 1250 L 2040 1241 L 2040 1241" stroke-miterlimit="10"/></g><g transform="translate(-62,-70) scale(1,1)"><path fill="none" stroke="#000000" d="M 2051 1161 L 2051 1231" stroke-miterlimit="10"/></g><g transform="translate(-62,-70) scale(1,1)"><path fill="none" stroke="#000000" d="M 2046.7904822439841 1220.837325142376 L 2051 1231 L 2055.209517756016 1220.837325142376" stroke-miterlimit="10"/></g><g transform="translate(-62,-70) scale(1,1)"><path fill="#C0C0C0" stroke="none" d="M 1833 1311 L 1951.33349609375 1311 Q 1961.33349609375 1311 1961.33349609375 1321 L 1961.33349609375 1341 Q 1961.33349609375 1351 1951.33349609375 1351 L 1833 1351 Q 1823 1351 1823 1341 L 1823 1321 Q 1823 1311 1833 1311 Z" opacity="0.2"/></g><g transform="translate(-62,-70) scale(1,1)"><path fill="#ffffff" stroke="none" d="M 1826 1304 L 1944.33349609375 1304 Q 1954.33349609375 1304 1954.33349609375 1314 L 1954.33349609375 1334 Q 1954.33349609375 1344 1944.33349609375 1344 L 1826 1344 Q 1816 1344 1816 1334 L 1816 1314 Q 1816 1304 1826 1304 Z"/></g><g transform="translate(-62,-70) scale(1,1)"><path fill="none" stroke="#000000" d="M 1826 1304 L 1944.33349609375 1304 Q 1954.33349609375 1304 1954.33349609375 1314 L 1954.33349609375 1334 Q 1954.33349609375 1344 1944.33349609375 1344 L 1826 1344 Q 1816 1344 1816 1334 L 1816 1314 Q 1816 1304 1826 1304 Z" stroke-miterlimit="10"/></g><g transform="translate(-62,-70) scale(1,1)"><g><path fill="none" stroke="none"/><text fill="#000000" stroke="none" font-family="Arial" font-size="13px" font-style="normal" font-weight="bold" text-decoration="none" x="1824.108642578125" y="1323.5">Visualizza Eccezione</text></g></g><g transform="translate(-62,-70) scale(1,1)"><path fill="none" stroke="#000000" d="M 2039 1247 L 1927 1303" stroke-miterlimit="10"/></g><g transform="translate(-62,-70) scale(1,1)"><path fill="none" stroke="#000000" d="M 1934.2072191549614 1294.6900064950473 L 1927 1303 L 1937.9723262969392 1302.2202207790026" stroke-miterlimit="10"/></g><g transform="translate(-62,-70) scale(1,1)"><g><path fill="none" stroke="none"/><text fill="#000000" stroke="none" font-family="Arial" font-size="13px" font-style="normal" font-weight="normal" text-decoration="none" x="1968.715576171875" y="1252.5"> [fallito]</text></g></g><g transform="translate(-62,-70) scale(1,1)"><path fill="#C0C0C0" stroke="none" d="M 2185 1311 L 2300.42626953125 1311 Q 2310.42626953125 1311 2310.42626953125 1321 L 2310.42626953125 1341 Q 2310.42626953125 1351 2300.42626953125 1351 L 2185 1351 Q 2175 1351 2175 1341 L 2175 1321 Q 2175 1311 2185 1311 Z" opacity="0.2"/></g><g transform="translate(-62,-70) scale(1,1)"><path fill="#ffffff" stroke="none" d="M 2178 1304 L 2293.42626953125 1304 Q 2303.42626953125 1304 2303.42626953125 1314 L 2303.42626953125 1334 Q 2303.42626953125 1344 2293.42626953125 1344 L 2178 1344 Q 2168 1344 2168 1334 L 2168 1314 Q 2168 1304 2178 1304 Z"/></g><g transform="translate(-62,-70) scale(1,1)"><path fill="none" stroke="#000000" d="M 2178 1304 L 2293.42626953125 1304 Q 2303.42626953125 1304 2303.42626953125 1314 L 2303.42626953125 1334 Q 2303.42626953125 1344 2293.42626953125 1344 L 2178 1344 Q 2168 1344 2168 1334 L 2168 1314 Q 2168 1304 2178 1304 Z" stroke-miterlimit="10"/></g><g transform="translate(-62,-70) scale(1,1)"><g><path fill="none" stroke="none"/><text fill="#000000" stroke="none" font-family="Arial" font-size="13px" font-style="normal" font-weight="bold" text-decoration="none" x="2176.10546875" y="1323.5">Visualizza Conferma</text></g></g><g transform="translate(-62,-70) scale(1,1)"><path fill="none" stroke="#000000" d="M 2063 1246 L 2188 1303" stroke-miterlimit="10"/></g><g transform="translate(-62,-70) scale(1,1)"><path fill="none" stroke="#000000" d="M 2177.0067881929335 1302.613613968974 L 2188 1303 L 2180.4998415668974 1294.953409201509" stroke-miterlimit="10"/></g><g transform="translate(-62,-70) scale(1,1)"><g><path fill="none" stroke="none"/><text fill="#000000" stroke="none" font-family="Arial" font-size="13px" font-style="normal" font-weight="normal" text-decoration="none" x="2094.5" y="1251.5"> [riuscito]</text></g></g><g transform="translate(-62,-70) scale(1,1)"><path fill="#C0C0C0" stroke="none" d="M 2231 1483.5 C 2231 1476.59644 2236.59644 1471 2243.5 1471 C 2250.40356 1471 2256 1476.59644 2256 1483.5 C 2256 1490.40356 2250.40356 1496 2243.5 1496 C 2236.59644 1496 2231 1490.40356 2231 1483.5 Z" opacity="0.2"/></g><g transform="translate(-62,-70) scale(1,1)"><path fill="none" stroke="#000000" d="M 2224 1476.5 C 2224 1469.59644 2229.59644 1464 2236.5 1464 C 2243.40356 1464 2249 1469.59644 2249 1476.5 C 2249 1483.40356 2243.40356 1489 2236.5 1489 C 2229.59644 1489 2224 1483.40356 2224 1476.5 Z" stroke-miterlimit="10"/></g><g transform="translate(-62,-70) scale(1,1)"><path fill="#000000" stroke="none" d="M 2229 1476.5 C 2229 1472.357864 2232.357864 1469 2236.5 1469 C 2240.642136 1469 2244 1472.357864 2244 1476.5 C 2244 1480.642136 2240.642136 1484 2236.5 1484 C 2232.357864 1484 2229 1480.642136 2229 1476.5 Z"/></g><g transform="translate(-62,-70) scale(1,1)"><path fill="#C0C0C0" stroke="none" d="M 1879 1443.5 C 1879 1436.59644 1884.59644 1431 1891.5 1431 C 1898.40356 1431 1904 1436.59644 1904 1443.5 C 1904 1450.40356 1898.40356 1456 1891.5 1456 C 1884.59644 1456 1879 1450.40356 1879 1443.5 Z" opacity="0.2"/></g><g transform="translate(-62,-70) scale(1,1)"><path fill="#ffffff" stroke="none" d="M 1872 1436.5 C 1872 1429.59644 1877.59644 1424 1884.5 1424 C 1891.40356 1424 1897 1429.59644 1897 1436.5 C 1897 1443.40356 1891.40356 1449 1884.5 1449 C 1877.59644 1449 1872 1443.40356 1872 1436.5 Z"/></g><g transform="translate(-62,-70) scale(1,1)"><path fill="none" stroke="#000000" d="M 1872 1436.5 C 1872 1429.59644 1877.59644 1424 1884.5 1424 C 1891.40356 1424 1897 1429.59644 1897 1436.5 C 1897 1443.40356 1891.40356 1449 1884.5 1449 C 1877.59644 1449 1872 1443.40356 1872 1436.5 Z" stroke-miterlimit="10"/></g><g transform="translate(-62,-70) scale(1,1)"><path fill="none" stroke="#000000" d="M 1875 1427 L 1893 1445" stroke-miterlimit="10"/></g><g transform="translate(-62,-70) scale(1,1)"><path fill="none" stroke="#000000" d="M 1893 1427 L 1875 1445" stroke-miterlimit="10"/></g><g transform="translate(-62,-70) scale(1,1)"><path fill="none" stroke="#000000" d="M 1885 1345 L 1884 1423" stroke-miterlimit="10"/></g><g transform="translate(-62,-70) scale(1,1)"><path fill="none" stroke="#000000" d="M 1879.9211081481628 1412.7841964945965 L 1884 1423 L 1888.3394518457796 1412.8921239778992" stroke-miterlimit="10"/></g><g transform="translate(-62,-70) scale(1,1)"><path fill="none" stroke="#000000" d="M 2235 1345 L 2236 1463" stroke-miterlimit="10"/></g><g transform="translate(-62,-70) scale(1,1)"><path fill="none" stroke="#000000" d="M 2231.70451212564 1452.8733626547987 L 2236 1463 L 2240.1232453329444 1452.8020174581266" stroke-miterlimit="10"/></g><g transform="translate(-62,-70) scale(1,1)"><path fill="none" stroke="#000000" d="M 92 97 L 215 99" stroke-miterlimit="10"/></g><g transform="translate(-62,-70) scale(1,1)"><path fill="none" stroke="#000000" d="M 204.770229949036 103.04373647811032 L 215 99 L 204.9071067419811 94.62581371198752" stroke-miterlimit="10"/></g></g></svg>