<svg version="1.1" xmlns="http://www.w3.org/2000/svg" xmlns:xlink="http://www.w3.org/1999/xlink" width="1943.77490234375" height="869"><defs/><g><g transform="translate(-70,-78) scale(1,1)"><path fill="#C0C0C0" stroke="none" d="M 87 112.5 C 87 107.2532944 91.2532944 103 96.5 103 C 101.7467056 103 106 107.2532944 106 112.5 C 106 117.7467056 101.7467056 122 96.5 122 C 91.2532944 122 87 117.7467056 87 112.5 Z" opacity="0.2"/></g><g transform="translate(-70,-78) scale(1,1)"><path fill="#000000" stroke="none" d="M 80 105.5 C 80 100.2532944 84.2532944 96 89.5 96 C 94.7467056 96 99 100.2532944 99 105.5 C 99 110.7467056 94.7467056 115 89.5 115 C 84.2532944 115 80 110.7467056 80 105.5 Z"/></g><g transform="translate(-70,-78) scale(1,1)"><path fill="#C0C0C0" stroke="none" d="M 217 95 L 426.32080078125 95 Q 436.32080078125 95 436.32080078125 105 L 436.32080078125 125 Q 436.32080078125 135 426.32080078125 135 L 217 135 Q 207 135 207 125 L 207 105 Q 207 95 217 95 Z" opacity="0.2"/></g><g transform="translate(-70,-78) scale(1,1)"><path fill="#ffffff" stroke="none" d="M 210 88 L 419.32080078125 88 Q 429.32080078125 88 429.32080078125 98 L 429.32080078125 118 Q 429.32080078125 128 419.32080078125 128 L 210 128 Q 200 128 200 118 L 200 98 Q 200 88 210 88 Z"/></g><g transform="translate(-70,-78) scale(1,1)"><path fill="none" stroke="#000000" d="M 210 88 L 419.32080078125 88 Q 429.32080078125 88 429.32080078125 98 L 429.32080078125 118 Q 429.32080078125 128 419.32080078125 128 L 210 128 Q 200 128 200 118 L 200 98 Q 200 88 210 88 Z" stroke-miterlimit="10"/></g><g transform="translate(-70,-78) scale(1,1)"><g><path fill="none" stroke="none"/><text fill="#000000" stroke="none" font-family="Arial" font-size="13px" font-style="normal" font-weight="bold" text-decoration="none" x="212.4091796875" y="107.5">Richiesta Visualizzazione Annuncio</text></g></g><g transform="translate(-70,-78) scale(1,1)"><path fill="#C0C0C0" stroke="none" d="M 577 95 L 676.525390625 95 Q 686.525390625 95 686.525390625 105 L 686.525390625 125 Q 686.525390625 135 676.525390625 135 L 577 135 Q 567 135 567 125 L 567 105 Q 567 95 577 95 Z" opacity="0.2"/></g><g transform="translate(-70,-78) scale(1,1)"><path fill="#ffffff" stroke="none" d="M 570 88 L 669.525390625 88 Q 679.525390625 88 679.525390625 98 L 679.525390625 118 Q 679.525390625 128 669.525390625 128 L 570 128 Q 560 128 560 118 L 560 98 Q 560 88 570 88 Z"/></g><g transform="translate(-70,-78) scale(1,1)"><path fill="none" stroke="#000000" d="M 570 88 L 669.525390625 88 Q 679.525390625 88 679.525390625 98 L 679.525390625 118 Q 679.525390625 128 669.525390625 128 L 570 128 Q 560 128 560 118 L 560 98 Q 560 88 570 88 Z" stroke-miterlimit="10"/></g><g transform="translate(-70,-78) scale(1,1)"><g><path fill="none" stroke="none"/><text fill="#000000" stroke="none" font-family="Arial" font-size="13px" font-style="normal" font-weight="bold" text-decoration="none" x="568.819580078125" y="107.5">Ricerca Annuncio</text></g></g><g transform="translate(-70,-78) scale(1,1)"><path fill="none" stroke="#000000" d="M 430 108 L 559 108" stroke-miterlimit="10"/></g><g transform="translate(-70,-78) scale(1,1)"><path fill="none" stroke="#000000" d="M 548.8373251423759 112.20951775601598 L 559 108 L 548.8373251423758 103.79048224398402" stroke-miterlimit="10"/></g><g transform="translate(-70,-78) scale(1,1)"><path fill="#C0C0C0" stroke="none" d="M 615 224.5 L 626.5 215 L 637 224.5 L 626.5 233 L 615 224.5" opacity="0.2"/></g><g transform="translate(-70,-78) scale(1,1)"><path fill="#ffffff" stroke="none" d="M 608 217 L 619 208 L 630 217 L 619 226 L 608 217"/></g><g transform="translate(-70,-78) scale(1,1)"><path fill="none" stroke="#000000" d="M 608 217 L 619 208 L 630 217 L 619 226 L 608 217 L 608 217" stroke-miterlimit="10"/></g><g transform="translate(-70,-78) scale(1,1)"><path fill="none" stroke="#000000" d="M 619 129 L 619 207" stroke-miterlimit="10"/></g><g transform="translate(-70,-78) scale(1,1)"><path fill="none" stroke="#000000" d="M 614.790482243984 196.83732514237585 L 619 207 L 623.209517756016 196.83732514237585" stroke-miterlimit="10"/></g><g transform="translate(-70,-78) scale(1,1)"><path fill="#C0C0C0" stroke="none" d="M 417 327 L 543.99169921875 327 Q 553.99169921875 327 553.99169921875 337 L 553.99169921875 357 Q 553.99169921875 367 543.99169921875 367 L 417 367 Q 407 367 407 357 L 407 337 Q 407 327 417 327 Z" opacity="0.2"/></g><g transform="translate(-70,-78) scale(1,1)"><path fill="#ffffff" stroke="none" d="M 410 320 L 536.99169921875 320 Q 546.99169921875 320 546.99169921875 330 L 546.99169921875 350 Q 546.99169921875 360 536.99169921875 360 L 410 360 Q 400 360 400 350 L 400 330 Q 400 320 410 320 Z"/></g><g transform="translate(-70,-78) scale(1,1)"><path fill="none" stroke="#000000" d="M 410 320 L 536.99169921875 320 Q 546.99169921875 320 546.99169921875 330 L 546.99169921875 350 Q 546.99169921875 360 536.99169921875 360 L 410 360 Q 400 360 400 350 L 400 330 Q 400 320 410 320 Z" stroke-miterlimit="10"/></g><g transform="translate(-70,-78) scale(1,1)"><g><path fill="none" stroke="none"/><text fill="#000000" stroke="none" font-family="Arial" font-size="13px" font-style="normal" font-weight="bold" text-decoration="none" x="408.8291015625" y="339.5">Visualizzazione Errore</text></g></g><g transform="translate(-70,-78) scale(1,1)"><path fill="none" stroke="#000000" d="M 607 227 L 498 319" stroke-miterlimit="10"/></g><g transform="translate(-70,-78) scale(1,1)"><path fill="none" stroke="#000000" d="M 503.0510139829826 309.2282418294498 L 498 319 L 508.48128270574614 315.661929772724" stroke-miterlimit="10"/></g><g transform="translate(-70,-78) scale(1,1)"><g><path fill="none" stroke="none"/><text fill="#000000" stroke="none" font-family="Arial" font-size="13px" font-style="normal" font-weight="normal" text-decoration="none" x="446.5" y="243.5"> [annuncio non trovato]</text></g></g><g transform="translate(-70,-78) scale(1,1)"><path fill="#C0C0C0" stroke="none" d="M 841 199 L 1032.236328125 199 Q 1042.236328125 199 1042.236328125 209 L 1042.236328125 229 Q 1042.236328125 239 1032.236328125 239 L 841 239 Q 831 239 831 229 L 831 209 Q 831 199 841 199 Z" opacity="0.2"/></g><g transform="translate(-70,-78) scale(1,1)"><path fill="#ffffff" stroke="none" d="M 834 192 L 1025.236328125 192 Q 1035.236328125 192 1035.236328125 202 L 1035.236328125 222 Q 1035.236328125 232 1025.236328125 232 L 834 232 Q 824 232 824 222 L 824 202 Q 824 192 834 192 Z"/></g><g transform="translate(-70,-78) scale(1,1)"><path fill="none" stroke="#000000" d="M 834 192 L 1025.236328125 192 Q 1035.236328125 192 1035.236328125 202 L 1035.236328125 222 Q 1035.236328125 232 1025.236328125 232 L 834 232 Q 824 232 824 222 L 824 202 Q 824 192 834 192 Z" stroke-miterlimit="10"/></g><g transform="translate(-70,-78) scale(1,1)"><g><path fill="none" stroke="none"/><text fill="#000000" stroke="none" font-family="Arial" font-size="13px" font-style="normal" font-weight="bold" text-decoration="none" x="836.7646484375" y="211.5">Estrazione informazioni Anuncio</text></g></g><g transform="translate(-70,-78) scale(1,1)"><path fill="none" stroke="#000000" d="M 631 217 L 823 214" stroke-miterlimit="10"/></g><g transform="translate(-70,-78) scale(1,1)"><path fill="none" stroke="#000000" d="M 812.9043311635539 218.3677764073739 L 823 214 L 812.7727997887746 209.94976842149597" stroke-miterlimit="10"/></g><g transform="translate(-70,-78) scale(1,1)"><g><path fill="none" stroke="none"/><text fill="#000000" stroke="none" font-family="Arial" font-size="13px" font-style="normal" font-weight="normal" text-decoration="none" x="638.5" y="205.5"> [annuncio trovato]</text></g></g><g transform="translate(-70,-78) scale(1,1)"><path fill="#C0C0C0" stroke="none" d="M 1137 199 L 1284.9072265625 199 Q 1294.9072265625 199 1294.9072265625 209 L 1294.9072265625 229 Q 1294.9072265625 239 1284.9072265625 239 L 1137 239 Q 1127 239 1127 229 L 1127 209 Q 1127 199 1137 199 Z" opacity="0.2"/></g><g transform="translate(-70,-78) scale(1,1)"><path fill="#ffffff" stroke="none" d="M 1130 192 L 1277.9072265625 192 Q 1287.9072265625 192 1287.9072265625 202 L 1287.9072265625 222 Q 1287.9072265625 232 1277.9072265625 232 L 1130 232 Q 1120 232 1120 222 L 1120 202 Q 1120 192 1130 192 Z"/></g><g transform="translate(-70,-78) scale(1,1)"><path fill="none" stroke="#000000" d="M 1130 192 L 1277.9072265625 192 Q 1287.9072265625 192 1287.9072265625 202 L 1287.9072265625 222 Q 1287.9072265625 232 1277.9072265625 232 L 1130 232 Q 1120 232 1120 222 L 1120 202 Q 1120 192 1130 192 Z" stroke-miterlimit="10"/></g><g transform="translate(-70,-78) scale(1,1)"><g><path fill="none" stroke="none"/><text fill="#000000" stroke="none" font-family="Arial" font-size="13px" font-style="normal" font-weight="bold" text-decoration="none" x="1130.241455078125" y="211.5">Visualizzazione Annuncio</text></g></g><g transform="translate(-70,-78) scale(1,1)"><path fill="none" stroke="#000000" d="M 1036 212 L 1119 212" stroke-miterlimit="10"/></g><g transform="translate(-70,-78) scale(1,1)"><path fill="none" stroke="#000000" d="M 1108.837325142376 216.209517756016 L 1119 212 L 1108.837325142376 207.790482243984" stroke-miterlimit="10"/></g><g transform="translate(-70,-78) scale(1,1)"><path fill="#C0C0C0" stroke="none" d="M 1129 319 L 1300.203125 319 Q 1310.203125 319 1310.203125 329 L 1310.203125 349 Q 1310.203125 359 1300.203125 359 L 1129 359 Q 1119 359 1119 349 L 1119 329 Q 1119 319 1129 319 Z" opacity="0.2"/></g><g transform="translate(-70,-78) scale(1,1)"><path fill="#ffffff" stroke="none" d="M 1122 312 L 1293.203125 312 Q 1303.203125 312 1303.203125 322 L 1303.203125 342 Q 1303.203125 352 1293.203125 352 L 1122 352 Q 1112 352 1112 342 L 1112 322 Q 1112 312 1122 312 Z"/></g><g transform="translate(-70,-78) scale(1,1)"><path fill="none" stroke="#000000" d="M 1122 312 L 1293.203125 312 Q 1303.203125 312 1303.203125 322 L 1303.203125 342 Q 1303.203125 352 1293.203125 352 L 1122 352 Q 1112 352 1112 342 L 1112 322 Q 1112 312 1122 312 Z" stroke-miterlimit="10"/></g><g transform="translate(-70,-78) scale(1,1)"><g><path fill="none" stroke="none"/><text fill="#000000" stroke="none" font-family="Arial" font-size="13px" font-style="normal" font-weight="bold" text-decoration="none" x="1123.257080078125" y="331.5">Creazione Modulo d'Acqusito</text></g></g><g transform="translate(-70,-78) scale(1,1)"><path fill="none" stroke="#000000" d="M 1204 233 L 1206 311" stroke-miterlimit="10"/></g><g transform="translate(-70,-78) scale(1,1)"><path fill="none" stroke="#000000" d="M 1201.5313695737946 300.94856517138015 L 1206 311 L 1209.9476388509854 300.73276339504196" stroke-miterlimit="10"/></g><g transform="translate(-70,-78) scale(1,1)"><path fill="#C0C0C0" stroke="none" d="M 1401 319 L 1644.99169921875 319 Q 1654.99169921875 319 1654.99169921875 329 L 1654.99169921875 349 Q 1654.99169921875 359 1644.99169921875 359 L 1401 359 Q 1391 359 1391 349 L 1391 329 Q 1391 319 1401 319 Z" opacity="0.2"/></g><g transform="translate(-70,-78) scale(1,1)"><path fill="#ffffff" stroke="none" d="M 1394 312 L 1637.99169921875 312 Q 1647.99169921875 312 1647.99169921875 322 L 1647.99169921875 342 Q 1647.99169921875 352 1637.99169921875 352 L 1394 352 Q 1384 352 1384 342 L 1384 322 Q 1384 312 1394 312 Z"/></g><g transform="translate(-70,-78) scale(1,1)"><path fill="none" stroke="#000000" d="M 1394 312 L 1637.99169921875 312 Q 1647.99169921875 312 1647.99169921875 322 L 1647.99169921875 342 Q 1647.99169921875 352 1637.99169921875 352 L 1394 352 Q 1384 352 1384 342 L 1384 322 Q 1384 312 1394 312 Z" stroke-miterlimit="10"/></g><g transform="translate(-70,-78) scale(1,1)"><g><path fill="none" stroke="none"/><text fill="#000000" stroke="none" font-family="Arial" font-size="13px" font-style="normal" font-weight="bold" text-decoration="none" x="1397.135986328125" y="331.5">Caricamento Rubrica Indirizzi Spedizione</text></g></g><g transform="translate(-70,-78) scale(1,1)"><path fill="none" stroke="#000000" d="M 1304 332 L 1383 332" stroke-miterlimit="10"/></g><g transform="translate(-70,-78) scale(1,1)"><path fill="none" stroke="#000000" d="M 1372.837325142376 336.209517756016 L 1383 332 L 1372.837325142376 327.790482243984" stroke-miterlimit="10"/></g><g transform="translate(-70,-78) scale(1,1)"><path fill="#C0C0C0" stroke="none" d="M 1511 496.5 L 1522.5 487 L 1533 496.5 L 1522.5 505 L 1511 496.5" opacity="0.2"/></g><g transform="translate(-70,-78) scale(1,1)"><path fill="#ffffff" stroke="none" d="M 1504 489 L 1515 480 L 1526 489 L 1515 498 L 1504 489"/></g><g transform="translate(-70,-78) scale(1,1)"><path fill="none" stroke="#000000" d="M 1504 489 L 1515 480 L 1526 489 L 1515 498 L 1504 489 L 1504 489" stroke-miterlimit="10"/></g><g transform="translate(-70,-78) scale(1,1)"><path fill="none" stroke="#000000" d="M 1515 353 L 1515 479" stroke-miterlimit="10"/></g><g transform="translate(-70,-78) scale(1,1)"><path fill="none" stroke="#000000" d="M 1510.7904822439841 468.83732514237585 L 1515 479 L 1519.2095177560159 468.83732514237585" stroke-miterlimit="10"/></g><g transform="translate(-70,-78) scale(1,1)"><path fill="#C0C0C0" stroke="none" d="M 1297 551 L 1423.99169921875 551 Q 1433.99169921875 551 1433.99169921875 561 L 1433.99169921875 581 Q 1433.99169921875 591 1423.99169921875 591 L 1297 591 Q 1287 591 1287 581 L 1287 561 Q 1287 551 1297 551 Z" opacity="0.2"/></g><g transform="translate(-70,-78) scale(1,1)"><path fill="#ffffff" stroke="none" d="M 1290 544 L 1416.99169921875 544 Q 1426.99169921875 544 1426.99169921875 554 L 1426.99169921875 574 Q 1426.99169921875 584 1416.99169921875 584 L 1290 584 Q 1280 584 1280 574 L 1280 554 Q 1280 544 1290 544 Z"/></g><g transform="translate(-70,-78) scale(1,1)"><path fill="none" stroke="#000000" d="M 1290 544 L 1416.99169921875 544 Q 1426.99169921875 544 1426.99169921875 554 L 1426.99169921875 574 Q 1426.99169921875 584 1416.99169921875 584 L 1290 584 Q 1280 584 1280 574 L 1280 554 Q 1280 544 1290 544 Z" stroke-miterlimit="10"/></g><g transform="translate(-70,-78) scale(1,1)"><g><path fill="none" stroke="none"/><text fill="#000000" stroke="none" font-family="Arial" font-size="13px" font-style="normal" font-weight="bold" text-decoration="none" x="1288.8291015625" y="563.5">Visualizzazione Errore</text></g></g><g transform="translate(-70,-78) scale(1,1)"><path fill="none" stroke="#000000" d="M 1503 495 L 1398 543" stroke-miterlimit="10"/></g><g transform="translate(-70,-78) scale(1,1)"><path fill="none" stroke="#000000" d="M 1405.4925452936025 534.9463197838929 L 1398 543 L 1408.992841479771 542.6032176911364" stroke-miterlimit="10"/></g><g transform="translate(-70,-78) scale(1,1)"><g><path fill="none" stroke="none"/><text fill="#000000" stroke="none" font-family="Arial" font-size="13px" font-style="normal" font-weight="normal" text-decoration="none" x="1391.5" y="499.5"> [rubrica vuota]</text></g></g><g transform="translate(-70,-78) scale(1,1)"><path fill="#C0C0C0" stroke="none" d="M 1769 551 L 1984.83984375 551 Q 1994.83984375 551 1994.83984375 561 L 1994.83984375 581 Q 1994.83984375 591 1984.83984375 591 L 1769 591 Q 1759 591 1759 581 L 1759 561 Q 1759 551 1769 551 Z" opacity="0.2"/></g><g transform="translate(-70,-78) scale(1,1)"><path fill="#ffffff" stroke="none" d="M 1762 544 L 1977.83984375 544 Q 1987.83984375 544 1987.83984375 554 L 1987.83984375 574 Q 1987.83984375 584 1977.83984375 584 L 1762 584 Q 1752 584 1752 574 L 1752 554 Q 1752 544 1762 544 Z"/></g><g transform="translate(-70,-78) scale(1,1)"><path fill="none" stroke="#000000" d="M 1762 544 L 1977.83984375 544 Q 1987.83984375 544 1987.83984375 554 L 1987.83984375 574 Q 1987.83984375 584 1977.83984375 584 L 1762 584 Q 1752 584 1752 574 L 1752 554 Q 1752 544 1762 544 Z" stroke-miterlimit="10"/></g><g transform="translate(-70,-78) scale(1,1)"><g><path fill="none" stroke="none"/><text fill="#000000" stroke="none" font-family="Arial" font-size="13px" font-style="normal" font-weight="bold" text-decoration="none" x="1764.063232421875" y="563.5">Visualizza scelta Indirizzi Spedizione</text></g></g><g transform="translate(-70,-78) scale(1,1)"><path fill="none" stroke="#000000" d="M 1527 492 L 1770 543" stroke-miterlimit="10"/></g><g transform="translate(-70,-78) scale(1,1)"><path fill="none" stroke="#000000" d="M 1759.1893745069592 545.032332760454 L 1770 543 L 1760.918657128458 536.7928096815472" stroke-miterlimit="10"/></g><g transform="translate(-70,-78) scale(1,1)"><g><path fill="none" stroke="none"/><text fill="#000000" stroke="none" font-family="Arial" font-size="13px" font-style="normal" font-weight="normal" text-decoration="none" x="1567.5" y="491.5"> [rubrica non vuota]</text></g></g><g transform="translate(-70,-78) scale(1,1)"><path fill="#C0C0C0" stroke="none" d="M 471 515.5 C 471 508.59644 476.59644 503 483.5 503 C 490.40356 503 496 508.59644 496 515.5 C 496 522.40356 490.40356 528 483.5 528 C 476.59644 528 471 522.40356 471 515.5 Z" opacity="0.2"/></g><g transform="translate(-70,-78) scale(1,1)"><path fill="#ffffff" stroke="none" d="M 464 508.5 C 464 501.59644 469.59644 496 476.5 496 C 483.40356 496 489 501.59644 489 508.5 C 489 515.40356 483.40356 521 476.5 521 C 469.59644 521 464 515.40356 464 508.5 Z"/></g><g transform="translate(-70,-78) scale(1,1)"><path fill="none" stroke="#000000" d="M 464 508.5 C 464 501.59644 469.59644 496 476.5 496 C 483.40356 496 489 501.59644 489 508.5 C 489 515.40356 483.40356 521 476.5 521 C 469.59644 521 464 515.40356 464 508.5 Z" stroke-miterlimit="10"/></g><g transform="translate(-70,-78) scale(1,1)"><path fill="none" stroke="#000000" d="M 467 499 L 485 517" stroke-miterlimit="10"/></g><g transform="translate(-70,-78) scale(1,1)"><path fill="none" stroke="#000000" d="M 485 499 L 467 517" stroke-miterlimit="10"/></g><g transform="translate(-70,-78) scale(1,1)"><path fill="#C0C0C0" stroke="none" d="M 1351 731.5 C 1351 724.59644 1356.59644 719 1363.5 719 C 1370.40356 719 1376 724.59644 1376 731.5 C 1376 738.40356 1370.40356 744 1363.5 744 C 1356.59644 744 1351 738.40356 1351 731.5 Z" opacity="0.2"/></g><g transform="translate(-70,-78) scale(1,1)"><path fill="#ffffff" stroke="none" d="M 1344 724.5 C 1344 717.59644 1349.59644 712 1356.5 712 C 1363.40356 712 1369 717.59644 1369 724.5 C 1369 731.40356 1363.40356 737 1356.5 737 C 1349.59644 737 1344 731.40356 1344 724.5 Z"/></g><g transform="translate(-70,-78) scale(1,1)"><path fill="none" stroke="#000000" d="M 1344 724.5 C 1344 717.59644 1349.59644 712 1356.5 712 C 1363.40356 712 1369 717.59644 1369 724.5 C 1369 731.40356 1363.40356 737 1356.5 737 C 1349.59644 737 1344 731.40356 1344 724.5 Z" stroke-miterlimit="10"/></g><g transform="translate(-70,-78) scale(1,1)"><path fill="none" stroke="#000000" d="M 1347 715 L 1365 733" stroke-miterlimit="10"/></g><g transform="translate(-70,-78) scale(1,1)"><path fill="none" stroke="#000000" d="M 1365 715 L 1347 733" stroke-miterlimit="10"/></g><g transform="translate(-70,-78) scale(1,1)"><path fill="none" stroke="#000000" d="M 473 361 L 476 495" stroke-miterlimit="10"/></g><g transform="translate(-70,-78) scale(1,1)"><path fill="none" stroke="#000000" d="M 471.56407123295645 484.9340904050496 L 476 495 L 479.98099762136326 484.74565175456286" stroke-miterlimit="10"/></g><g transform="translate(-70,-78) scale(1,1)"><path fill="none" stroke="#000000" d="M 1353 585 L 1356 711" stroke-miterlimit="10"/></g><g transform="translate(-70,-78) scale(1,1)"><path fill="none" stroke="#000000" d="M 1351.5497750179125 700.9404027114002 L 1356 711 L 1359.9664251961349 700.7400062785854" stroke-miterlimit="10"/></g><g transform="translate(-70,-78) scale(1,1)"><path fill="#C0C0C0" stroke="none" d="M 1753 677 L 2000.77490234375 677 Q 2010.77490234375 677 2010.77490234375 687 L 2010.77490234375 707 Q 2010.77490234375 717 2000.77490234375 717 L 1753 717 Q 1743 717 1743 707 L 1743 687 Q 1743 677 1753 677 Z" opacity="0.2"/></g><g transform="translate(-70,-78) scale(1,1)"><path fill="#ffffff" stroke="none" d="M 1746 670 L 1993.77490234375 670 Q 2003.77490234375 670 2003.77490234375 680 L 2003.77490234375 700 Q 2003.77490234375 710 1993.77490234375 710 L 1746 710 Q 1736 710 1736 700 L 1736 680 Q 1736 670 1746 670 Z"/></g><g transform="translate(-70,-78) scale(1,1)"><path fill="none" stroke="#000000" d="M 1746 670 L 1993.77490234375 670 Q 2003.77490234375 670 2003.77490234375 680 L 2003.77490234375 700 Q 2003.77490234375 710 1993.77490234375 710 L 1746 710 Q 1736 710 1736 700 L 1736 680 Q 1736 670 1746 670 Z" stroke-miterlimit="10"/></g><g transform="translate(-70,-78) scale(1,1)"><g><path fill="none" stroke="none"/><text fill="#000000" stroke="none" font-family="Arial" font-size="13px" font-style="normal" font-weight="bold" text-decoration="none" x="1774.50439453125" y="689.5">Creazione Sottomissione Modulo</text></g></g><g transform="translate(-70,-78) scale(1,1)"><path fill="none" stroke="#000000" d="M 1869 585 L 1869 669" stroke-miterlimit="10"/></g><g transform="translate(-70,-78) scale(1,1)"><path fill="none" stroke="#000000" d="M 1864.7904822439841 658.8373251423759 L 1869 669 L 1873.2095177560159 658.8373251423759" stroke-miterlimit="10"/></g><g transform="translate(-70,-78) scale(1,1)"><path fill="#C0C0C0" stroke="none" d="M 1863 931.5 C 1863 924.59644 1868.59644 919 1875.5 919 C 1882.40356 919 1888 924.59644 1888 931.5 C 1888 938.40356 1882.40356 944 1875.5 944 C 1868.59644 944 1863 938.40356 1863 931.5 Z" opacity="0.2"/></g><g transform="translate(-70,-78) scale(1,1)"><path fill="none" stroke="#000000" d="M 1856 924.5 C 1856 917.59644 1861.59644 912 1868.5 912 C 1875.40356 912 1881 917.59644 1881 924.5 C 1881 931.40356 1875.40356 937 1868.5 937 C 1861.59644 937 1856 931.40356 1856 924.5 Z" stroke-miterlimit="10"/></g><g transform="translate(-70,-78) scale(1,1)"><path fill="#000000" stroke="none" d="M 1861 924.5 C 1861 920.357864 1864.357864 917 1868.5 917 C 1872.642136 917 1876 920.357864 1876 924.5 C 1876 928.642136 1872.642136 932 1868.5 932 C 1864.357864 932 1861 928.642136 1861 924.5 Z"/></g><g transform="translate(-70,-78) scale(1,1)"><path fill="none" stroke="#000000" d="M 1869 711 L 1868 911" stroke-miterlimit="10"/></g><g transform="translate(-70,-78) scale(1,1)"><path fill="none" stroke="#000000" d="M 1863.8413476011021 900.8164048477396 L 1868 911 L 1872.2602778771634 900.85849949912" stroke-miterlimit="10"/></g><g transform="translate(-70,-78) scale(1,1)"><path fill="none" stroke="#000000" d="M 100 105 L 199 106" stroke-miterlimit="10"/></g><g transform="translate(-70,-78) scale(1,1)"><path fill="none" stroke="#000000" d="M 188.795325341268 110.10665497813403 L 199 106 L 188.88036176597603 101.68804893204015" stroke-miterlimit="10"/></g></g></svg>