<svg version="1.1" xmlns="http://www.w3.org/2000/svg" xmlns:xlink="http://www.w3.org/1999/xlink" width="1277.63720703125" height="1085"><defs/><g><g transform="translate(-110,-142) scale(1,1)"><path fill="#C0C0C0" stroke="none" d="M 127 176.5 C 127 171.2532944 131.2532944 167 136.5 167 C 141.7467056 167 146 171.2532944 146 176.5 C 146 181.7467056 141.7467056 186 136.5 186 C 131.2532944 186 127 181.7467056 127 176.5 Z" opacity="0.2"/></g><g transform="translate(-110,-142) scale(1,1)"><path fill="#000000" stroke="none" d="M 120 169.5 C 120 164.2532944 124.2532944 160 129.5 160 C 134.7467056 160 139 164.2532944 139 169.5 C 139 174.7467056 134.7467056 179 129.5 179 C 124.2532944 179 120 174.7467056 120 169.5 Z"/></g><g transform="translate(-110,-142) scale(1,1)"><path fill="#C0C0C0" stroke="none" d="M 337 159 L 500.80810546875 159 Q 510.80810546875 159 510.80810546875 169 L 510.80810546875 189 Q 510.80810546875 199 500.80810546875 199 L 337 199 Q 327 199 327 189 L 327 169 Q 327 159 337 159 Z" opacity="0.2"/></g><g transform="translate(-110,-142) scale(1,1)"><path fill="#ffffff" stroke="none" d="M 330 152 L 493.80810546875 152 Q 503.80810546875 152 503.80810546875 162 L 503.80810546875 182 Q 503.80810546875 192 493.80810546875 192 L 330 192 Q 320 192 320 182 L 320 162 Q 320 152 330 152 Z"/></g><g transform="translate(-110,-142) scale(1,1)"><path fill="none" stroke="#000000" d="M 330 152 L 493.80810546875 152 Q 503.80810546875 152 503.80810546875 162 L 503.80810546875 182 Q 503.80810546875 192 493.80810546875 192 L 330 192 Q 320 192 320 182 L 320 162 Q 320 152 330 152 Z" stroke-miterlimit="10"/></g><g transform="translate(-110,-142) scale(1,1)"><g><path fill="none" stroke="none"/><text fill="#000000" stroke="none" font-family="Arial" font-size="13px" font-style="normal" font-weight="bold" text-decoration="none" x="330.619140625" y="171.5">Modulo Ricerca Sottomesso</text></g></g><g transform="translate(-110,-142) scale(1,1)"><path fill="#C0C0C0" stroke="none" d="M 673 159 L 831.01904296875 159 Q 841.01904296875 159 841.01904296875 169 L 841.01904296875 189 Q 841.01904296875 199 831.01904296875 199 L 673 199 Q 663 199 663 189 L 663 169 Q 663 159 673 159 Z" opacity="0.2"/></g><g transform="translate(-110,-142) scale(1,1)"><path fill="#ffffff" stroke="none" d="M 666 152 L 824.01904296875 152 Q 834.01904296875 152 834.01904296875 162 L 834.01904296875 182 Q 834.01904296875 192 824.01904296875 192 L 666 192 Q 656 192 656 182 L 656 162 Q 656 152 666 152 Z"/></g><g transform="translate(-110,-142) scale(1,1)"><path fill="none" stroke="#000000" d="M 666 152 L 824.01904296875 152 Q 834.01904296875 152 834.01904296875 162 L 834.01904296875 182 Q 834.01904296875 192 824.01904296875 192 L 666 192 Q 656 192 656 182 L 656 162 Q 656 152 666 152 Z" stroke-miterlimit="10"/></g><g transform="translate(-110,-142) scale(1,1)"><g><path fill="none" stroke="none"/><text fill="#000000" stroke="none" font-family="Arial" font-size="13px" font-style="normal" font-weight="bold" text-decoration="none" x="666.596923828125" y="171.5">Validazione Sintattica Input</text></g></g><g transform="translate(-110,-142) scale(1,1)"><path fill="none" stroke="#000000" d="M 505 172 L 655 172" stroke-miterlimit="10"/></g><g transform="translate(-110,-142) scale(1,1)"><path fill="none" stroke="#000000" d="M 644.8373251423759 176.209517756016 L 655 172 L 644.8373251423758 167.790482243984" stroke-miterlimit="10"/></g><g transform="translate(-110,-142) scale(1,1)"><path fill="#C0C0C0" stroke="none" d="M 743 312.5 L 754.5 303 L 765 312.5 L 754.5 321 L 743 312.5" opacity="0.2"/></g><g transform="translate(-110,-142) scale(1,1)"><path fill="#ffffff" stroke="none" d="M 736 305 L 747 296 L 758 305 L 747 314 L 736 305"/></g><g transform="translate(-110,-142) scale(1,1)"><path fill="none" stroke="#000000" d="M 736 305 L 747 296 L 758 305 L 747 314 L 736 305 L 736 305" stroke-miterlimit="10"/></g><g transform="translate(-110,-142) scale(1,1)"><path fill="none" stroke="#000000" d="M 745 193 L 747 295" stroke-miterlimit="10"/></g><g transform="translate(-110,-142) scale(1,1)"><path fill="none" stroke="#000000" d="M 742.592061382689 284.92180188992006 L 747 295 L 751.0094789384244 284.75675448686644" stroke-miterlimit="10"/></g><g transform="translate(-110,-142) scale(1,1)"><path fill="#C0C0C0" stroke="none" d="M 441 415 L 567.99169921875 415 Q 577.99169921875 415 577.99169921875 425 L 577.99169921875 445 Q 577.99169921875 455 567.99169921875 455 L 441 455 Q 431 455 431 445 L 431 425 Q 431 415 441 415 Z" opacity="0.2"/></g><g transform="translate(-110,-142) scale(1,1)"><path fill="#ffffff" stroke="none" d="M 434 408 L 560.99169921875 408 Q 570.99169921875 408 570.99169921875 418 L 570.99169921875 438 Q 570.99169921875 448 560.99169921875 448 L 434 448 Q 424 448 424 438 L 424 418 Q 424 408 434 408 Z"/></g><g transform="translate(-110,-142) scale(1,1)"><path fill="none" stroke="#000000" d="M 434 408 L 560.99169921875 408 Q 570.99169921875 408 570.99169921875 418 L 570.99169921875 438 Q 570.99169921875 448 560.99169921875 448 L 434 448 Q 424 448 424 438 L 424 418 Q 424 408 434 408 Z" stroke-miterlimit="10"/></g><g transform="translate(-110,-142) scale(1,1)"><g><path fill="none" stroke="none"/><text fill="#000000" stroke="none" font-family="Arial" font-size="13px" font-style="normal" font-weight="bold" text-decoration="none" x="432.8291015625" y="427.5">Visualizzazione Errore</text></g></g><g transform="translate(-110,-142) scale(1,1)"><path fill="none" stroke="#000000" d="M 735 311 L 540 407" stroke-miterlimit="10"/></g><g transform="translate(-110,-142) scale(1,1)"><path fill="none" stroke="#000000" d="M 547.2583771260714 398.73465297185146 L 540 407 L 550.9769306187183 406.2879647537905" stroke-miterlimit="10"/></g><g transform="translate(-110,-142) scale(1,1)"><g><path fill="none" stroke="none"/><text fill="#000000" stroke="none" font-family="Arial" font-size="13px" font-style="normal" font-weight="normal" text-decoration="none" x="567.5" y="339.5"> [input non valido]</text></g></g><g transform="translate(-110,-142) scale(1,1)"><path fill="#C0C0C0" stroke="none" d="M 1103 312.5 L 1114.5 303 L 1125 312.5 L 1114.5 321 L 1103 312.5" opacity="0.2"/></g><g transform="translate(-110,-142) scale(1,1)"><path fill="#ffffff" stroke="none" d="M 1096 305 L 1107 296 L 1118 305 L 1107 314 L 1096 305"/></g><g transform="translate(-110,-142) scale(1,1)"><path fill="none" stroke="#000000" d="M 1096 305 L 1107 296 L 1118 305 L 1107 314 L 1096 305 L 1096 305" stroke-miterlimit="10"/></g><g transform="translate(-110,-142) scale(1,1)"><path fill="none" stroke="#000000" d="M 759 305 L 1095 305" stroke-miterlimit="10"/></g><g transform="translate(-110,-142) scale(1,1)"><path fill="none" stroke="#000000" d="M 1084.837325142376 309.209517756016 L 1095 305 L 1084.837325142376 300.790482243984" stroke-miterlimit="10"/></g><g transform="translate(-110,-142) scale(1,1)"><g><path fill="none" stroke="none"/><text fill="#000000" stroke="none" font-family="Arial" font-size="13px" font-style="normal" font-weight="normal" text-decoration="none" x="814.5" y="299.5"> [input valido]</text></g></g><g transform="translate(-110,-142) scale(1,1)"><path fill="#C0C0C0" stroke="none" d="M 913 527 L 983.6689453125 527 Q 993.6689453125 527 993.6689453125 537 L 993.6689453125 557 Q 993.6689453125 567 983.6689453125 567 L 913 567 Q 903 567 903 557 L 903 537 Q 903 527 913 527 Z" opacity="0.2"/></g><g transform="translate(-110,-142) scale(1,1)"><path fill="#ffffff" stroke="none" d="M 906 520 L 976.6689453125 520 Q 986.6689453125 520 986.6689453125 530 L 986.6689453125 550 Q 986.6689453125 560 976.6689453125 560 L 906 560 Q 896 560 896 550 L 896 530 Q 896 520 906 520 Z"/></g><g transform="translate(-110,-142) scale(1,1)"><path fill="none" stroke="#000000" d="M 906 520 L 976.6689453125 520 Q 986.6689453125 520 986.6689453125 530 L 986.6689453125 550 Q 986.6689453125 560 976.6689453125 560 L 906 560 Q 896 560 896 550 L 896 530 Q 896 520 906 520 Z" stroke-miterlimit="10"/></g><g transform="translate(-110,-142) scale(1,1)"><g><path fill="none" stroke="none"/><text fill="#000000" stroke="none" font-family="Arial" font-size="13px" font-style="normal" font-weight="bold" text-decoration="none" x="902.680419921875" y="539.5">Ricerca Base</text></g></g><g transform="translate(-110,-142) scale(1,1)"><path fill="#C0C0C0" stroke="none" d="M 1265 527 L 1361.6689453125 527 Q 1371.6689453125 527 1371.6689453125 537 L 1371.6689453125 557 Q 1371.6689453125 567 1361.6689453125 567 L 1265 567 Q 1255 567 1255 557 L 1255 537 Q 1255 527 1265 527 Z" opacity="0.2"/></g><g transform="translate(-110,-142) scale(1,1)"><path fill="#ffffff" stroke="none" d="M 1258 520 L 1354.6689453125 520 Q 1364.6689453125 520 1364.6689453125 530 L 1364.6689453125 550 Q 1364.6689453125 560 1354.6689453125 560 L 1258 560 Q 1248 560 1248 550 L 1248 530 Q 1248 520 1258 520 Z"/></g><g transform="translate(-110,-142) scale(1,1)"><path fill="none" stroke="#000000" d="M 1258 520 L 1354.6689453125 520 Q 1364.6689453125 520 1364.6689453125 530 L 1364.6689453125 550 Q 1364.6689453125 560 1354.6689453125 560 L 1258 560 Q 1248 560 1248 550 L 1248 530 Q 1248 520 1258 520 Z" stroke-miterlimit="10"/></g><g transform="translate(-110,-142) scale(1,1)"><g><path fill="none" stroke="none"/><text fill="#000000" stroke="none" font-family="Arial" font-size="13px" font-style="normal" font-weight="bold" text-decoration="none" x="1255.39453125" y="539.5">Ricerca Avanzata</text></g></g><g transform="translate(-110,-142) scale(1,1)"><path fill="#C0C0C0" stroke="none" d="M 487 651.5 C 487 644.59644 492.59644 639 499.5 639 C 506.40356 639 512 644.59644 512 651.5 C 512 658.40356 506.40356 664 499.5 664 C 492.59644 664 487 658.40356 487 651.5 Z" opacity="0.2"/></g><g transform="translate(-110,-142) scale(1,1)"><path fill="#ffffff" stroke="none" d="M 480 644.5 C 480 637.59644 485.59644 632 492.5 632 C 499.40356 632 505 637.59644 505 644.5 C 505 651.40356 499.40356 657 492.5 657 C 485.59644 657 480 651.40356 480 644.5 Z"/></g><g transform="translate(-110,-142) scale(1,1)"><path fill="none" stroke="#000000" d="M 480 644.5 C 480 637.59644 485.59644 632 492.5 632 C 499.40356 632 505 637.59644 505 644.5 C 505 651.40356 499.40356 657 492.5 657 C 485.59644 657 480 651.40356 480 644.5 Z" stroke-miterlimit="10"/></g><g transform="translate(-110,-142) scale(1,1)"><path fill="none" stroke="#000000" d="M 483 635 L 501 653" stroke-miterlimit="10"/></g><g transform="translate(-110,-142) scale(1,1)"><path fill="none" stroke="#000000" d="M 501 635 L 483 653" stroke-miterlimit="10"/></g><g transform="translate(-110,-142) scale(1,1)"><path fill="none" stroke="#000000" d="M 497 449 L 492 631" stroke-miterlimit="10"/></g><g transform="translate(-110,-142) scale(1,1)"><path fill="none" stroke="#000000" d="M 488.0711589548457 620.7255555847573 L 492 631 L 496.4870191737097 620.9567605358251" stroke-miterlimit="10"/></g><g transform="translate(-110,-142) scale(1,1)"><path fill="none" stroke="#000000" d="M 1100 315 L 956 519" stroke-miterlimit="10"/></g><g transform="translate(-110,-142) scale(1,1)"><path fill="none" stroke="#000000" d="M 958.4216031065426 508.2698630766247 L 956 519 L 965.2996845595576 513.1249793963999" stroke-miterlimit="10"/></g><g transform="translate(-110,-142) scale(1,1)"><g><path fill="none" stroke="none"/><text fill="#000000" stroke="none" font-family="Arial" font-size="13px" font-style="normal" font-weight="normal" text-decoration="none" x="918.5" y="395.5"> [utente non loggato]</text></g></g><g transform="translate(-110,-142) scale(1,1)"><path fill="none" stroke="#000000" d="M 1115 315 L 1288 519" stroke-miterlimit="10"/></g><g transform="translate(-110,-142) scale(1,1)"><path fill="none" stroke="#000000" d="M 1278.2164855746166 513.971795003352 L 1288 519 L 1284.6374884563008 508.52653275564916" stroke-miterlimit="10"/></g><g transform="translate(-110,-142) scale(1,1)"><g><path fill="none" stroke="none"/><text fill="#000000" stroke="none" font-family="Arial" font-size="13px" font-style="normal" font-weight="normal" text-decoration="none" x="1175.5" y="380.5"> [utente loggato]</text></g></g><g transform="translate(-110,-142) scale(1,1)"><path fill="#C0C0C0" stroke="none" d="M 897 679 L 1006.63720703125 679 Q 1016.63720703125 679 1016.63720703125 689 L 1016.63720703125 709 Q 1016.63720703125 719 1006.63720703125 719 L 897 719 Q 887 719 887 709 L 887 689 Q 887 679 897 679 Z" opacity="0.2"/></g><g transform="translate(-110,-142) scale(1,1)"><path fill="#ffffff" stroke="none" d="M 890 672 L 999.63720703125 672 Q 1009.63720703125 672 1009.63720703125 682 L 1009.63720703125 702 Q 1009.63720703125 712 999.63720703125 712 L 890 712 Q 880 712 880 702 L 880 682 Q 880 672 890 672 Z"/></g><g transform="translate(-110,-142) scale(1,1)"><path fill="none" stroke="#000000" d="M 890 672 L 999.63720703125 672 Q 1009.63720703125 672 1009.63720703125 682 L 1009.63720703125 702 Q 1009.63720703125 712 999.63720703125 712 L 890 712 Q 880 712 880 702 L 880 682 Q 880 672 890 672 Z" stroke-miterlimit="10"/></g><g transform="translate(-110,-142) scale(1,1)"><g><path fill="none" stroke="none"/><text fill="#000000" stroke="none" font-family="Arial" font-size="13px" font-style="normal" font-weight="bold" text-decoration="none" x="889.1845703125" y="691.5">Estrazione Risultati</text></g></g><g transform="translate(-110,-142) scale(1,1)"><path fill="none" stroke="#000000" d="M 941 561 L 944 671" stroke-miterlimit="10"/></g><g transform="translate(-110,-142) scale(1,1)"><path fill="none" stroke="#000000" d="M 939.5149860545772 660.955864899885 L 944 671 L 947.9308922659205 660.7263401850302" stroke-miterlimit="10"/></g><g transform="translate(-110,-142) scale(1,1)"><path fill="#C0C0C0" stroke="none" d="M 1265 671 L 1374.63720703125 671 Q 1384.63720703125 671 1384.63720703125 681 L 1384.63720703125 701 Q 1384.63720703125 711 1374.63720703125 711 L 1265 711 Q 1255 711 1255 701 L 1255 681 Q 1255 671 1265 671 Z" opacity="0.2"/></g><g transform="translate(-110,-142) scale(1,1)"><path fill="#ffffff" stroke="none" d="M 1258 664 L 1367.63720703125 664 Q 1377.63720703125 664 1377.63720703125 674 L 1377.63720703125 694 Q 1377.63720703125 704 1367.63720703125 704 L 1258 704 Q 1248 704 1248 694 L 1248 674 Q 1248 664 1258 664 Z"/></g><g transform="translate(-110,-142) scale(1,1)"><path fill="none" stroke="#000000" d="M 1258 664 L 1367.63720703125 664 Q 1377.63720703125 664 1377.63720703125 674 L 1377.63720703125 694 Q 1377.63720703125 704 1367.63720703125 704 L 1258 704 Q 1248 704 1248 694 L 1248 674 Q 1248 664 1258 664 Z" stroke-miterlimit="10"/></g><g transform="translate(-110,-142) scale(1,1)"><g><path fill="none" stroke="none"/><text fill="#000000" stroke="none" font-family="Arial" font-size="13px" font-style="normal" font-weight="bold" text-decoration="none" x="1257.1845703125" y="683.5">Estrazione Risultati</text></g></g><g transform="translate(-110,-142) scale(1,1)"><path fill="none" stroke="#000000" d="M 1307 561 L 1311 663" stroke-miterlimit="10"/></g><g transform="translate(-110,-142) scale(1,1)"><path fill="none" stroke="#000000" d="M 1306.3954851875803 653.0100829161495 L 1311 663 L 1314.8080544655463 652.6801782385821" stroke-miterlimit="10"/></g><g transform="translate(-110,-142) scale(1,1)"><path fill="#C0C0C0" stroke="none" d="M 1119 936.5 L 1130.5 927 L 1141 936.5 L 1130.5 945 L 1119 936.5" opacity="0.2"/></g><g transform="translate(-110,-142) scale(1,1)"><path fill="#ffffff" stroke="none" d="M 1112 929 L 1123 920 L 1134 929 L 1123 938 L 1112 929"/></g><g transform="translate(-110,-142) scale(1,1)"><path fill="none" stroke="#000000" d="M 1112 929 L 1123 920 L 1134 929 L 1123 938 L 1112 929 L 1112 929" stroke-miterlimit="10"/></g><g transform="translate(-110,-142) scale(1,1)"><path fill="none" stroke="#000000" d="M 960 713 L 1115 919" stroke-miterlimit="10"/></g><g transform="translate(-110,-142) scale(1,1)"><path fill="none" stroke="#000000" d="M 1105.5260965060152 913.4102636388949 L 1115 919 L 1112.253479081079 908.3483981091139" stroke-miterlimit="10"/></g><g transform="translate(-110,-142) scale(1,1)"><path fill="none" stroke="#000000" d="M 1296 705 L 1131 919" stroke-miterlimit="10"/></g><g transform="translate(-110,-142) scale(1,1)"><path fill="none" stroke="#000000" d="M 1133.871708677954 908.3814648247056 L 1131 919 L 1140.539042908492 913.5221664510551" stroke-miterlimit="10"/></g><g transform="translate(-110,-142) scale(1,1)"><path fill="#C0C0C0" stroke="none" d="M 1041 1047 L 1227.92626953125 1047 Q 1237.92626953125 1047 1237.92626953125 1057 L 1237.92626953125 1077 Q 1237.92626953125 1087 1227.92626953125 1087 L 1041 1087 Q 1031 1087 1031 1077 L 1031 1057 Q 1031 1047 1041 1047 Z" opacity="0.2"/></g><g transform="translate(-110,-142) scale(1,1)"><path fill="#ffffff" stroke="none" d="M 1034 1040 L 1220.92626953125 1040 Q 1230.92626953125 1040 1230.92626953125 1050 L 1230.92626953125 1070 Q 1230.92626953125 1080 1220.92626953125 1080 L 1034 1080 Q 1024 1080 1024 1070 L 1024 1050 Q 1024 1040 1034 1040 Z"/></g><g transform="translate(-110,-142) scale(1,1)"><path fill="none" stroke="#000000" d="M 1034 1040 L 1220.92626953125 1040 Q 1230.92626953125 1040 1230.92626953125 1050 L 1230.92626953125 1070 Q 1230.92626953125 1080 1220.92626953125 1080 L 1034 1080 Q 1024 1080 1024 1070 L 1024 1050 Q 1024 1040 1034 1040 Z" stroke-miterlimit="10"/></g><g transform="translate(-110,-142) scale(1,1)"><g><path fill="none" stroke="none"/><text fill="#000000" stroke="none" font-family="Arial" font-size="13px" font-style="normal" font-weight="bold" text-decoration="none" x="1034.96826171875" y="1059.5">Visualizzazione Corrispondenze</text></g></g><g transform="translate(-110,-142) scale(1,1)"><path fill="none" stroke="#000000" d="M 1123 939 L 1126 1039" stroke-miterlimit="10"/></g><g transform="translate(-110,-142) scale(1,1)"><path fill="none" stroke="#000000" d="M 1121.4876321071354 1028.9681240039838 L 1126 1039 L 1129.9028816085524 1028.7156665189414" stroke-miterlimit="10"/></g><g transform="translate(-110,-142) scale(1,1)"><path fill="#C0C0C0" stroke="none" d="M 1127 1211.5 C 1127 1204.59644 1132.59644 1199 1139.5 1199 C 1146.40356 1199 1152 1204.59644 1152 1211.5 C 1152 1218.40356 1146.40356 1224 1139.5 1224 C 1132.59644 1224 1127 1218.40356 1127 1211.5 Z" opacity="0.2"/></g><g transform="translate(-110,-142) scale(1,1)"><path fill="none" stroke="#000000" d="M 1120 1204.5 C 1120 1197.59644 1125.59644 1192 1132.5 1192 C 1139.40356 1192 1145 1197.59644 1145 1204.5 C 1145 1211.40356 1139.40356 1217 1132.5 1217 C 1125.59644 1217 1120 1211.40356 1120 1204.5 Z" stroke-miterlimit="10"/></g><g transform="translate(-110,-142) scale(1,1)"><path fill="#000000" stroke="none" d="M 1125 1204.5 C 1125 1200.357864 1128.357864 1197 1132.5 1197 C 1136.642136 1197 1140 1200.357864 1140 1204.5 C 1140 1208.642136 1136.642136 1212 1132.5 1212 C 1128.357864 1212 1125 1208.642136 1125 1204.5 Z"/></g><g transform="translate(-110,-142) scale(1,1)"><path fill="none" stroke="#000000" d="M 1128 1081 L 1132 1191" stroke-miterlimit="10"/></g><g transform="translate(-110,-142) scale(1,1)"><path fill="none" stroke="#000000" d="M 1127.4239549158333 1180.997009877658 L 1132 1191 L 1135.8374296376205 1180.6910653423201" stroke-miterlimit="10"/></g><g transform="translate(-110,-142) scale(1,1)"><path fill="none" stroke="#000000" d="M 140 169 L 319 171" stroke-miterlimit="10"/></g><g transform="translate(-110,-142) scale(1,1)"><path fill="none" stroke="#000000" d="M 308.79092865502605 175.09571266975993 L 319 171 L 308.88499021977276 166.67720262493057" stroke-miterlimit="10"/></g></g></svg>