<svg version="1.1" xmlns="http://www.w3.org/2000/svg" xmlns:xlink="http://www.w3.org/1999/xlink" width="2844" height="2820"><defs/><g><g transform="translate(2,10) scale(1,1)"><path fill="none" stroke="#000000" d="M 8 0 L 2832 0 L 2832 2800 L 8 2800 L 8 0" stroke-miterlimit="10"/></g><g transform="translate(2,10) scale(1,1)"><path fill="#ffffff" stroke="none" d="M 8 0 L 8 22 L 188.78515625 22 L 199.78515625 11 L 199.78515625 0 L 8 0"/></g><g transform="translate(2,10) scale(1,1)"><path fill="none" stroke="#000000" d="M 8 0 L 8 22 L 188.78515625 22 L 199.78515625 11 L 199.78515625 0 L 8 0 L 8 0" stroke-miterlimit="10"/></g><g transform="translate(2,10) scale(1,1)"><g><path fill="none" stroke="none"/><text fill="#000000" stroke="none" font-family="Arial" font-size="13px" font-style="normal" font-weight="normal" text-decoration="none" x="78.97900390625" y="17.5">AggiungiAnnuncio</text></g></g><g transform="translate(2,10) scale(1,1)"><g><path fill="none" stroke="none"/><text fill="#000000" stroke="none" font-family="Arial" font-size="13px" font-style="normal" font-weight="bold" text-decoration="none" x="13" y="17.5">interaction</text></g></g><g transform="translate(2,10) scale(1,1)"><rect fill="#C0C0C0" stroke="none" x="231" y="47" width="237.81005859375" height="39" opacity="0.2"/></g><g transform="translate(2,10) scale(1,1)"><rect fill="#ffffff" stroke="none" x="224" y="40" width="237.81005859375" height="39"/></g><g transform="translate(2,10) scale(1,1)"><path fill="none" stroke="#000000" d="M 224 40 L 461.81005859375 40 L 461.81005859375 79 L 224 79 L 224 40 Z Z" stroke-miterlimit="10"/></g><g transform="translate(2,10) scale(1,1)"><g><path fill="none" stroke="none"/><text fill="#000000" stroke="none" font-family="Arial" font-size="13px" font-style="normal" font-weight="normal" text-decoration="none" x="307.85009765625" y="57.5">«Boundary»</text></g></g><g transform="translate(2,10) scale(1,1)"><g><path fill="none" stroke="none"/><text fill="#000000" stroke="none" font-family="Arial" font-size="13px" font-style="normal" font-weight="bold" text-decoration="none" x="288.696044921875" y="72.5">Aggiungi Annuncio</text></g></g><g transform="translate(2,10) scale(1,1)"><path fill="none" stroke="#000000" d="M 343.5 80 L 343.5 2728" stroke-miterlimit="10" stroke-dasharray="3"/></g><g transform="translate(2,10) scale(1,1)"><rect fill="#C0C0C0" stroke="none" x="599" y="123" width="149.00634765625" height="39" opacity="0.2"/></g><g transform="translate(2,10) scale(1,1)"><rect fill="#ffffff" stroke="none" x="592" y="116" width="149.00634765625" height="39"/></g><g transform="translate(2,10) scale(1,1)"><path fill="none" stroke="#000000" d="M 592 116 L 741.00634765625 116 L 741.00634765625 155 L 592 155 L 592 116 Z Z" stroke-miterlimit="10"/></g><g transform="translate(2,10) scale(1,1)"><g><path fill="none" stroke="none"/><text fill="#000000" stroke="none" font-family="Arial" font-size="13px" font-style="normal" font-weight="normal" text-decoration="none" x="644.813232421875" y="133.5">«bean»</text></g></g><g transform="translate(2,10) scale(1,1)"><g><path fill="none" stroke="none"/><text fill="#000000" stroke="none" font-family="Arial" font-size="13px" font-style="normal" font-weight="bold" text-decoration="none" x="606.146484375" y="148.5">bean: AnnuncioBean</text></g></g><g transform="translate(2,10) scale(1,1)"><path fill="none" stroke="#000000" d="M 667.5 156 L 667.5 2512" stroke-miterlimit="10" stroke-dasharray="3"/></g><g transform="translate(2,10) scale(1,1)"><rect fill="#C0C0C0" stroke="none" x="887" y="424" width="264.5654296875" height="39" opacity="0.2"/></g><g transform="translate(2,10) scale(1,1)"><rect fill="#ffffff" stroke="none" x="880" y="417" width="264.5654296875" height="39"/></g><g transform="translate(2,10) scale(1,1)"><path fill="none" stroke="#000000" d="M 880 417 L 1144.5654296875 417 L 1144.5654296875 456 L 880 456 L 880 417 Z Z" stroke-miterlimit="10"/></g><g transform="translate(2,10) scale(1,1)"><g><path fill="none" stroke="none"/><text fill="#000000" stroke="none" font-family="Arial" font-size="13px" font-style="normal" font-weight="normal" text-decoration="none" x="978.319580078125" y="434.5">«controller»</text></g></g><g transform="translate(2,10) scale(1,1)"><g><path fill="none" stroke="none"/><text fill="#000000" stroke="none" font-family="Arial" font-size="13px" font-style="normal" font-weight="bold" text-decoration="none" x="900.64013671875" y="449.5">controller: GestioneAnnuncioController</text></g></g><g transform="translate(2,10) scale(1,1)"><path fill="none" stroke="#000000" d="M 1013.5 457 L 1013.5 2510" stroke-miterlimit="10" stroke-dasharray="3"/></g><g transform="translate(2,10) scale(1,1)"><rect fill="#C0C0C0" stroke="none" x="1335" y="544" width="144.65185546875" height="39" opacity="0.2"/></g><g transform="translate(2,10) scale(1,1)"><rect fill="#ffffff" stroke="none" x="1328" y="537" width="144.65185546875" height="39"/></g><g transform="translate(2,10) scale(1,1)"><path fill="none" stroke="#000000" d="M 1328 537 L 1472.65185546875 537 L 1472.65185546875 576 L 1328 576 L 1328 537 Z Z" stroke-miterlimit="10"/></g><g transform="translate(2,10) scale(1,1)"><g><path fill="none" stroke="none"/><text fill="#000000" stroke="none" font-family="Arial" font-size="13px" font-style="normal" font-weight="normal" text-decoration="none" x="1377.56005859375" y="554.5">«entity»</text></g></g><g transform="translate(2,10) scale(1,1)"><g><path fill="none" stroke="none"/><text fill="#000000" stroke="none" font-family="Arial" font-size="13px" font-style="normal" font-weight="bold" text-decoration="none" x="1343.2255859375" y="569.5">annuncio: Annuncio</text></g></g><g transform="translate(2,10) scale(1,1)"><path fill="none" stroke="#000000" d="M 1401.5 577 L 1401.5 824" stroke-miterlimit="10" stroke-dasharray="3"/></g><g transform="translate(2,10) scale(1,1)"><rect fill="#C0C0C0" stroke="none" x="1747.65185546875" y="47" width="103.49365234375" height="39" opacity="0.2"/></g><g transform="translate(2,10) scale(1,1)"><rect fill="#ffffff" stroke="none" x="1740.65185546875" y="40" width="103.49365234375" height="39"/></g><g transform="translate(2,10) scale(1,1)"><path fill="none" stroke="#000000" d="M 1740.65185546875 40 L 1844.1455078125 40 L 1844.1455078125 79 L 1740.65185546875 79 L 1740.65185546875 40 Z Z" stroke-miterlimit="10"/></g><g transform="translate(2,10) scale(1,1)"><g><path fill="none" stroke="none"/><text fill="#000000" stroke="none" font-family="Arial" font-size="13px" font-style="normal" font-weight="normal" text-decoration="none" x="1769.6328125" y="57.5">«entity»</text></g></g><g transform="translate(2,10) scale(1,1)"><g><path fill="none" stroke="none"/><text fill="#000000" stroke="none" font-family="Arial" font-size="13px" font-style="normal" font-weight="bold" text-decoration="none" x="1753.3701171875" y="72.5">AnnuncioDao</text></g></g><g transform="translate(2,10) scale(1,1)"><path fill="none" stroke="#000000" d="M 1793.5 80 L 1793.5 2440" stroke-miterlimit="10" stroke-dasharray="3"/></g><g transform="translate(2,10) scale(1,1)"><rect fill="#C0C0C0" stroke="none" x="2319" y="47" width="195.9853515625" height="39" opacity="0.2"/></g><g transform="translate(2,10) scale(1,1)"><rect fill="#ffffff" stroke="none" x="2312" y="40" width="195.9853515625" height="39"/></g><g transform="translate(2,10) scale(1,1)"><path fill="none" stroke="#000000" d="M 2312 40 L 2507.9853515625 40 L 2507.9853515625 79 L 2312 79 L 2312 40 Z Z" stroke-miterlimit="10"/></g><g transform="translate(2,10) scale(1,1)"><g><path fill="none" stroke="none"/><text fill="#000000" stroke="none" font-family="Arial" font-size="13px" font-style="normal" font-weight="normal" text-decoration="none" x="2387.226806640625" y="57.5">«entity»</text></g></g><g transform="translate(2,10) scale(1,1)"><g><path fill="none" stroke="none"/><text fill="#000000" stroke="none" font-family="Arial" font-size="13px" font-style="normal" font-weight="bold" text-decoration="none" x="2326.8828125" y="72.5">singleton: DatabaseManager</text></g></g><g transform="translate(2,10) scale(1,1)"><path fill="none" stroke="#000000" d="M 2410.5 80 L 2410.5 2144" stroke-miterlimit="10" stroke-dasharray="3"/></g><g transform="translate(2,10) scale(1,1)"><path fill="none" stroke="#000000" d="M 96 296 L 2648 296 L 2648 2730 L 96 2730 L 96 296" stroke-miterlimit="10"/></g><g transform="translate(2,10) scale(1,1)"><path fill="#ffffff" stroke="none" d="M 96 296 L 96 318 L 125.72998046875 318 L 136.72998046875 307 L 136.72998046875 296 L 96 296"/></g><g transform="translate(2,10) scale(1,1)"><path fill="none" stroke="#000000" d="M 96 296 L 96 318 L 125.72998046875 318 L 136.72998046875 307 L 136.72998046875 296 L 96 296 L 96 296" stroke-miterlimit="10"/></g><g transform="translate(2,10) scale(1,1)"><g><path fill="none" stroke="none"/><text fill="#000000" stroke="none" font-family="Arial" font-size="13px" font-style="normal" font-weight="bold" text-decoration="none" x="101" y="313.5">alt</text></g></g><g transform="translate(2,10) scale(1,1)"><g><path fill="none" stroke="none"/><text fill="#000000" stroke="none" font-family="Arial" font-size="13px" font-style="normal" font-weight="normal" text-decoration="none" x="115.5" y="346.5">[Dati input consistenti]</text></g></g><g transform="translate(2,10) scale(1,1)"><path fill="none" stroke="#000000" d="M 96 2513 L 2648 2513" stroke-miterlimit="10" stroke-dasharray="10,3"/></g><g transform="translate(2,10) scale(1,1)"><g><path fill="none" stroke="none"/><text fill="#000000" stroke="none" font-family="Arial" font-size="13px" font-style="normal" font-weight="normal" text-decoration="none" x="115.5" y="2540.5">[Dati input inconsistenti]</text></g></g><g transform="translate(2,10) scale(1,1)"><path fill="none" stroke="#000000" d="M 560 880 L 1127 880 L 1127 1063 L 560 1063 L 560 880" stroke-miterlimit="10"/></g><g transform="translate(2,10) scale(1,1)"><path fill="#ffffff" stroke="none" d="M 560 880 L 560 902 L 831.099609375 902 L 842.099609375 891 L 842.099609375 880 L 560 880"/></g><g transform="translate(2,10) scale(1,1)"><path fill="none" stroke="#000000" d="M 560 880 L 560 902 L 831.099609375 902 L 842.099609375 891 L 842.099609375 880 L 560 880 L 560 880" stroke-miterlimit="10"/></g><g transform="translate(2,10) scale(1,1)"><g><path fill="none" stroke="none"/><text fill="#000000" stroke="none" font-family="Arial" font-size="13px" font-style="normal" font-weight="normal" text-decoration="none" x="603.51904296875" y="897.5">idAnnuncio == AnnuncioDao._ERROR</text></g></g><g transform="translate(2,10) scale(1,1)"><g><path fill="none" stroke="none"/><text fill="#000000" stroke="none" font-family="Arial" font-size="13px" font-style="normal" font-weight="bold" text-decoration="none" x="565" y="897.5">break</text></g></g><g transform="translate(2,10) scale(1,1)"><rect fill="#C0C0C0" stroke="none" x="1999" y="1347" width="144.65185546875" height="39" opacity="0.2"/></g><g transform="translate(2,10) scale(1,1)"><rect fill="#ffffff" stroke="none" x="1992" y="1340" width="144.65185546875" height="39"/></g><g transform="translate(2,10) scale(1,1)"><path fill="none" stroke="#000000" d="M 1992 1340 L 2136.65185546875 1340 L 2136.65185546875 1379 L 1992 1379 L 1992 1340 Z Z" stroke-miterlimit="10"/></g><g transform="translate(2,10) scale(1,1)"><g><path fill="none" stroke="none"/><text fill="#000000" stroke="none" font-family="Arial" font-size="13px" font-style="normal" font-weight="normal" text-decoration="none" x="2041.56005859375" y="1357.5">«entity»</text></g></g><g transform="translate(2,10) scale(1,1)"><g><path fill="none" stroke="none"/><text fill="#000000" stroke="none" font-family="Arial" font-size="13px" font-style="normal" font-weight="bold" text-decoration="none" x="2007.2255859375" y="1372.5">annuncio: Annuncio</text></g></g><g transform="translate(2,10) scale(1,1)"><path fill="none" stroke="#000000" d="M 2065.5 1380 L 2065.5 2232" stroke-miterlimit="10" stroke-dasharray="3"/></g><g transform="translate(2,10) scale(1,1)"><path fill="none" stroke="#000000" d="M 568 1608 L 1136 1608 L 1136 1792 L 568 1792 L 568 1608" stroke-miterlimit="10"/></g><g transform="translate(2,10) scale(1,1)"><path fill="#ffffff" stroke="none" d="M 568 1608 L 568 1630 L 711.9306640625 1630 L 722.9306640625 1619 L 722.9306640625 1608 L 568 1608"/></g><g transform="translate(2,10) scale(1,1)"><path fill="none" stroke="#000000" d="M 568 1608 L 568 1630 L 711.9306640625 1630 L 722.9306640625 1619 L 722.9306640625 1608 L 568 1608 L 568 1608" stroke-miterlimit="10"/></g><g transform="translate(2,10) scale(1,1)"><g><path fill="none" stroke="none"/><text fill="#000000" stroke="none" font-family="Arial" font-size="13px" font-style="normal" font-weight="normal" text-decoration="none" x="611.51904296875" y="1625.5">annuncio == null</text></g></g><g transform="translate(2,10) scale(1,1)"><g><path fill="none" stroke="none"/><text fill="#000000" stroke="none" font-family="Arial" font-size="13px" font-style="normal" font-weight="bold" text-decoration="none" x="573" y="1625.5">break</text></g></g><g transform="translate(2,10) scale(1,1)"><path fill="none" stroke="#000000" d="M 343 136 L 592 136" stroke-miterlimit="10" stroke-dasharray="3"/></g><g transform="translate(2,10) scale(1,1)"><path fill="none" stroke="#000000" d="M 581.8373251423759 140.209517756016 L 592 136 L 581.8373251423758 131.790482243984" stroke-miterlimit="10"/></g><g transform="translate(2,10) scale(1,1)"><g><path fill="none" stroke="none"/><text fill="#000000" stroke="none" font-family="Arial" font-size="13px" font-style="normal" font-weight="normal" text-decoration="none" x="444.489501953125" y="131.5">1 : </text></g></g><g transform="translate(2,10) scale(1,1)"><g><path fill="none" stroke="none"/><text fill="#000000" stroke="none" font-family="Arial" font-size="13px" font-style="normal" font-weight="normal" text-decoration="none" x="462.5" y="132.5">«create»</text></g></g><g transform="translate(2,10) scale(1,1)"><path fill="none" stroke="#000000" d="M 343 232 L 660 232" stroke-miterlimit="10"/></g><g transform="translate(2,10) scale(1,1)"><path fill="#000000" stroke="none" d="M 649.8373251423759 236.209517756016 L 660 232 L 649.8373251423758 227.790482243984"/></g><g transform="translate(2,10) scale(1,1)"><path fill="none" stroke="#000000" d="M 649.8373251423759 236.209517756016 L 660 232 L 649.8373251423758 227.790482243984 L 649.8373251423759 236.209517756016" stroke-miterlimit="10"/></g><g transform="translate(2,10) scale(1,1)"><g><path fill="none" stroke="none"/><text fill="#000000" stroke="none" font-family="Arial" font-size="13px" font-style="normal" font-weight="normal" text-decoration="none" x="464.75634765625" y="228.5">2 : validate()</text></g></g><g transform="translate(2,10) scale(1,1)"><rect fill="#ffffff" stroke="none" x="660" y="232" width="13" height="28"/></g><g transform="translate(2,10) scale(1,1)"><path fill="none" stroke="#000000" d="M 660 232 L 673 232 L 673 260 L 660 260 L 660 232 Z Z" stroke-miterlimit="10"/></g><g transform="translate(2,10) scale(1,1)"><path fill="none" stroke="#000000" d="M 660 256 L 343 256" stroke-miterlimit="10" stroke-dasharray="3"/></g><g transform="translate(2,10) scale(1,1)"><path fill="none" stroke="#000000" d="M 353.16267485762415 251.790482243984 L 343 256 L 353.16267485762415 260.209517756016" stroke-miterlimit="10"/></g><g transform="translate(2,10) scale(1,1)"><g><path fill="none" stroke="none"/><text fill="#000000" stroke="none" font-family="Arial" font-size="13px" font-style="normal" font-weight="normal" text-decoration="none" x="490.747314453125" y="272.5">3 : </text></g></g><g transform="translate(2,10) scale(1,1)"><path fill="none" stroke="#000000" d="M 343 375 L 660 375" stroke-miterlimit="10"/></g><g transform="translate(2,10) scale(1,1)"><path fill="#000000" stroke="none" d="M 649.8373251423759 379.209517756016 L 660 375 L 649.8373251423758 370.790482243984"/></g><g transform="translate(2,10) scale(1,1)"><path fill="none" stroke="#000000" d="M 649.8373251423759 379.209517756016 L 660 375 L 649.8373251423758 370.790482243984 L 649.8373251423759 379.209517756016" stroke-miterlimit="10"/></g><g transform="translate(2,10) scale(1,1)"><g><path fill="none" stroke="none"/><text fill="#000000" stroke="none" font-family="Arial" font-size="13px" font-style="normal" font-weight="normal" text-decoration="none" x="400.5" y="371.5">4 : creaAnnuncio(idUtente, picture)</text></g></g><g transform="translate(2,10) scale(1,1)"><rect fill="#ffffff" stroke="none" x="660" y="375" width="13" height="28"/></g><g transform="translate(2,10) scale(1,1)"><path fill="none" stroke="#000000" d="M 660 375 L 673 375 L 673 403 L 660 403 L 660 375 Z Z" stroke-miterlimit="10"/></g><g transform="translate(2,10) scale(1,1)"><path fill="none" stroke="#000000" d="M 667 437 L 880 437" stroke-miterlimit="10" stroke-dasharray="3"/></g><g transform="translate(2,10) scale(1,1)"><path fill="none" stroke="#000000" d="M 869.8373251423759 441.209517756016 L 880 437 L 869.8373251423758 432.790482243984" stroke-miterlimit="10"/></g><g transform="translate(2,10) scale(1,1)"><g><path fill="none" stroke="none"/><text fill="#000000" stroke="none" font-family="Arial" font-size="13px" font-style="normal" font-weight="normal" text-decoration="none" x="763.489501953125" y="433.5">5 : </text></g></g><g transform="translate(2,10) scale(1,1)"><g><path fill="none" stroke="none"/><text fill="#000000" stroke="none" font-family="Arial" font-size="13px" font-style="normal" font-weight="normal" text-decoration="none" x="747.5" y="418.5">«create»</text></g></g><g transform="translate(2,10) scale(1,1)"><path fill="none" stroke="#000000" d="M 667 512 L 1006 512" stroke-miterlimit="10"/></g><g transform="translate(2,10) scale(1,1)"><path fill="#000000" stroke="none" d="M 995.8373251423759 516.209517756016 L 1006 512 L 995.8373251423758 507.790482243984"/></g><g transform="translate(2,10) scale(1,1)"><path fill="none" stroke="#000000" d="M 995.8373251423759 516.209517756016 L 1006 512 L 995.8373251423758 507.790482243984 L 995.8373251423759 516.209517756016" stroke-miterlimit="10"/></g><g transform="translate(2,10) scale(1,1)"><g><path fill="none" stroke="none"/><text fill="#000000" stroke="none" font-family="Arial" font-size="9px" font-style="normal" font-weight="normal" text-decoration="none" x="690.41015625" y="501.5">6 : aggiungiAnnuncio(titolo, descrizione, categoria, quantità, prezzo, foto,</text><text fill="#000000" stroke="none" font-family="Arial" font-size="9px" font-style="normal" font-weight="normal" text-decoration="none" x="796.984130859375" y="510.5">idCreatore, picture)</text></g></g><g transform="translate(2,10) scale(1,1)"><rect fill="#ffffff" stroke="none" x="1006" y="512" width="13" height="28"/></g><g transform="translate(2,10) scale(1,1)"><path fill="none" stroke="#000000" d="M 1006 512 L 1019 512 L 1019 540 L 1006 540 L 1006 512 Z Z" stroke-miterlimit="10"/></g><g transform="translate(2,10) scale(1,1)"><path fill="none" stroke="#000000" d="M 1013 557 L 1328 557" stroke-miterlimit="10" stroke-dasharray="3"/></g><g transform="translate(2,10) scale(1,1)"><path fill="none" stroke="#000000" d="M 1317.837325142376 561.209517756016 L 1328 557 L 1317.837325142376 552.790482243984" stroke-miterlimit="10"/></g><g transform="translate(2,10) scale(1,1)"><g><path fill="none" stroke="none"/><text fill="#000000" stroke="none" font-family="Arial" font-size="9px" font-style="normal" font-weight="normal" text-decoration="none" x="1017.9814453125" y="551.5">7 : Annuncio(titolo, descrizione, categoria, quantità, prezzo, foto, idCreatore)</text></g></g><g transform="translate(2,10) scale(1,1)"><g><path fill="none" stroke="none"/><text fill="#000000" stroke="none" font-family="Arial" font-size="13px" font-style="normal" font-weight="normal" text-decoration="none" x="1144.5" y="538.5">«create»</text></g></g><g transform="translate(2,10) scale(1,1)"><path fill="none" stroke="#000000" d="M 1013 640 L 1786 640" stroke-miterlimit="10"/></g><g transform="translate(2,10) scale(1,1)"><path fill="#000000" stroke="none" d="M 1775.837325142376 644.209517756016 L 1786 640 L 1775.837325142376 635.790482243984"/></g><g transform="translate(2,10) scale(1,1)"><path fill="none" stroke="#000000" d="M 1775.837325142376 644.209517756016 L 1786 640 L 1775.837325142376 635.790482243984 L 1775.837325142376 644.209517756016" stroke-miterlimit="10"/></g><g transform="translate(2,10) scale(1,1)"><g><path fill="none" stroke="none"/><text fill="#000000" stroke="none" font-family="Arial" font-size="10px" font-style="normal" font-weight="normal" text-decoration="none" x="1336.344482421875" y="634.5">8 : storeAndGetId(annuncio)</text></g></g><g transform="translate(2,10) scale(1,1)"><rect fill="#ffffff" stroke="none" x="1786" y="640" width="13" height="120"/></g><g transform="translate(2,10) scale(1,1)"><path fill="none" stroke="#000000" d="M 1786 640 L 1799 640 L 1799 760 L 1786 760 L 1786 640 Z Z" stroke-miterlimit="10"/></g><g transform="translate(2,10) scale(1,1)"><path fill="none" stroke="#000000" d="M 1799 664 L 2403 664" stroke-miterlimit="10"/></g><g transform="translate(2,10) scale(1,1)"><path fill="#000000" stroke="none" d="M 2392.837325142376 668.209517756016 L 2403 664 L 2392.837325142376 659.790482243984"/></g><g transform="translate(2,10) scale(1,1)"><path fill="none" stroke="#000000" d="M 2392.837325142376 668.209517756016 L 2403 664 L 2392.837325142376 659.790482243984 L 2392.837325142376 668.209517756016" stroke-miterlimit="10"/></g><g transform="translate(2,10) scale(1,1)"><g><path fill="none" stroke="none"/><text fill="#000000" stroke="none" font-family="Arial" font-size="13px" font-style="normal" font-weight="normal" text-decoration="none" x="2063.924072265625" y="658.5">9 : getSession()</text></g></g><g transform="translate(2,10) scale(1,1)"><rect fill="#ffffff" stroke="none" x="2403" y="664" width="13" height="28"/></g><g transform="translate(2,10) scale(1,1)"><path fill="none" stroke="#000000" d="M 2403 664 L 2416 664 L 2416 692 L 2403 692 L 2403 664 Z Z" stroke-miterlimit="10"/></g><g transform="translate(2,10) scale(1,1)"><path fill="none" stroke="#000000" d="M 2403 688 L 1799 688" stroke-miterlimit="10" stroke-dasharray="3"/></g><g transform="translate(2,10) scale(1,1)"><path fill="none" stroke="#000000" d="M 1809.162674857624 683.790482243984 L 1799 688 L 1809.162674857624 692.209517756016" stroke-miterlimit="10"/></g><g transform="translate(2,10) scale(1,1)"><g><path fill="none" stroke="none"/><text fill="#000000" stroke="none" font-family="Arial" font-size="13px" font-style="normal" font-weight="normal" text-decoration="none" x="2065.5" y="704.5">10 : session</text></g></g><g transform="translate(2,10) scale(1,1)"><path fill="none" stroke="#000000" d="M 1793 768 L 1823 768 L 1823 788 L 1799 788" stroke-miterlimit="10"/></g><g transform="translate(2,10) scale(1,1)"><path fill="#000000" stroke="none" d="M 1809.162674857624 783.790482243984 L 1799 788 L 1809.162674857624 792.209517756016"/></g><g transform="translate(2,10) scale(1,1)"><path fill="none" stroke="#000000" d="M 1809.162674857624 783.790482243984 L 1799 788 L 1809.162674857624 792.209517756016 L 1809.162674857624 783.790482243984" stroke-miterlimit="10"/></g><g transform="translate(2,10) scale(1,1)"><g><path fill="none" stroke="none"/><text fill="#000000" stroke="none" font-family="Arial" font-size="13px" font-style="normal" font-weight="normal" text-decoration="none" x="1825.5" y="788.5">11 : closeSession()</text></g></g><g transform="translate(2,10) scale(1,1)"><rect fill="#ffffff" stroke="none" x="1786" y="788" width="13" height="28"/></g><g transform="translate(2,10) scale(1,1)"><path fill="none" stroke="#000000" d="M 1786 788 L 1799 788 L 1799 816 L 1786 816 L 1786 788 Z Z" stroke-miterlimit="10"/></g><g transform="translate(2,10) scale(1,1)"><path fill="none" stroke="#000000" d="M 1793 824 L 1013 824" stroke-miterlimit="10" stroke-dasharray="3"/></g><g transform="translate(2,10) scale(1,1)"><path fill="none" stroke="#000000" d="M 1023.1626748576241 819.790482243984 L 1013 824 L 1023.1626748576241 828.209517756016" stroke-miterlimit="10"/></g><g transform="translate(2,10) scale(1,1)"><g><path fill="none" stroke="none"/><text fill="#000000" stroke="none" font-family="Arial" font-size="9px" font-style="normal" font-weight="normal" text-decoration="none" x="1370.673095703125" y="838.5">12 : idAnnuncio</text></g></g><g transform="translate(2,10) scale(1,1)"><path fill="none" stroke="#000000" d="M 1013 966 L 667 966" stroke-miterlimit="10" stroke-dasharray="3"/></g><g transform="translate(2,10) scale(1,1)"><path fill="none" stroke="#000000" d="M 677.1626748576241 961.790482243984 L 667 966 L 677.1626748576241 970.209517756016" stroke-miterlimit="10"/></g><g transform="translate(2,10) scale(1,1)"><g><path fill="none" stroke="none"/><text fill="#000000" stroke="none" font-family="Arial" font-size="13px" font-style="normal" font-weight="normal" text-decoration="none" x="790.830078125" y="982.5">13 : done = false</text></g></g><g transform="translate(2,10) scale(1,1)"><path fill="none" stroke="#000000" d="M 1013 1168 L 1786 1168" stroke-miterlimit="10"/></g><g transform="translate(2,10) scale(1,1)"><path fill="#000000" stroke="none" d="M 1775.837325142376 1172.2095177560159 L 1786 1168 L 1775.837325142376 1163.7904822439841"/></g><g transform="translate(2,10) scale(1,1)"><path fill="none" stroke="#000000" d="M 1775.837325142376 1172.2095177560159 L 1786 1168 L 1775.837325142376 1163.7904822439841 L 1775.837325142376 1172.2095177560159" stroke-miterlimit="10"/></g><g transform="translate(2,10) scale(1,1)"><g><path fill="none" stroke="none"/><text fill="#000000" stroke="none" font-family="Arial" font-size="9px" font-style="normal" font-weight="normal" text-decoration="none" x="1348.231689453125" y="1162.5">14 : findById(idAnnuncio)</text></g></g><g transform="translate(2,10) scale(1,1)"><rect fill="#ffffff" stroke="none" x="1786" y="1168" width="13" height="264"/></g><g transform="translate(2,10) scale(1,1)"><path fill="none" stroke="#000000" d="M 1786 1168 L 1799 1168 L 1799 1432 L 1786 1432 L 1786 1168 Z Z" stroke-miterlimit="10"/></g><g transform="translate(2,10) scale(1,1)"><path fill="none" stroke="#000000" d="M 1799 1208 L 2403 1208" stroke-miterlimit="10"/></g><g transform="translate(2,10) scale(1,1)"><path fill="#000000" stroke="none" d="M 2392.837325142376 1212.2095177560159 L 2403 1208 L 2392.837325142376 1203.7904822439841"/></g><g transform="translate(2,10) scale(1,1)"><path fill="none" stroke="#000000" d="M 2392.837325142376 1212.2095177560159 L 2403 1208 L 2392.837325142376 1203.7904822439841 L 2392.837325142376 1212.2095177560159" stroke-miterlimit="10"/></g><g transform="translate(2,10) scale(1,1)"><g><path fill="none" stroke="none"/><text fill="#000000" stroke="none" font-family="Arial" font-size="13px" font-style="normal" font-weight="normal" text-decoration="none" x="2030.5" y="1203.5">15 : getSession()</text></g></g><g transform="translate(2,10) scale(1,1)"><rect fill="#ffffff" stroke="none" x="2403" y="1208" width="13" height="40"/></g><g transform="translate(2,10) scale(1,1)"><path fill="none" stroke="#000000" d="M 2403 1208 L 2416 1208 L 2416 1248 L 2403 1248 L 2403 1208 Z Z" stroke-miterlimit="10"/></g><g transform="translate(2,10) scale(1,1)"><path fill="none" stroke="#000000" d="M 2410 1248 L 1799 1248" stroke-miterlimit="10" stroke-dasharray="3"/></g><g transform="translate(2,10) scale(1,1)"><path fill="none" stroke="#000000" d="M 1809.162674857624 1243.7904822439841 L 1799 1248 L 1809.162674857624 1252.2095177560159" stroke-miterlimit="10"/></g><g transform="translate(2,10) scale(1,1)"><g><path fill="none" stroke="none"/><text fill="#000000" stroke="none" font-family="Arial" font-size="13px" font-style="normal" font-weight="normal" text-decoration="none" x="2068.5" y="1264.5">16 : session</text></g></g><g transform="translate(2,10) scale(1,1)"><path fill="none" stroke="#000000" d="M 1799 1360 L 1992 1360" stroke-miterlimit="10" stroke-dasharray="3"/></g><g transform="translate(2,10) scale(1,1)"><path fill="none" stroke="#000000" d="M 1981.837325142376 1364.2095177560159 L 1992 1360 L 1981.837325142376 1355.7904822439841" stroke-miterlimit="10"/></g><g transform="translate(2,10) scale(1,1)"><g><path fill="none" stroke="none"/><text fill="#000000" stroke="none" font-family="Arial" font-size="13px" font-style="normal" font-weight="normal" text-decoration="none" x="1852.5" y="1356.5">17 : Message1</text></g></g><g transform="translate(2,10) scale(1,1)"><g><path fill="none" stroke="none"/><text fill="#000000" stroke="none" font-family="Arial" font-size="13px" font-style="normal" font-weight="normal" text-decoration="none" x="1869.5" y="1341.5">«create»</text></g></g><g transform="translate(2,10) scale(1,1)"><path fill="none" stroke="#000000" d="M 1793 1432 L 1823 1432 L 1823 1452 L 1799 1452" stroke-miterlimit="10"/></g><g transform="translate(2,10) scale(1,1)"><path fill="#000000" stroke="none" d="M 1809.162674857624 1447.7904822439841 L 1799 1452 L 1809.162674857624 1456.2095177560159"/></g><g transform="translate(2,10) scale(1,1)"><path fill="none" stroke="#000000" d="M 1809.162674857624 1447.7904822439841 L 1799 1452 L 1809.162674857624 1456.2095177560159 L 1809.162674857624 1447.7904822439841" stroke-miterlimit="10"/></g><g transform="translate(2,10) scale(1,1)"><g><path fill="none" stroke="none"/><text fill="#000000" stroke="none" font-family="Arial" font-size="13px" font-style="normal" font-weight="normal" text-decoration="none" x="1806.5" y="1428.5">18 : closeSession()</text></g></g><g transform="translate(2,10) scale(1,1)"><rect fill="#ffffff" stroke="none" x="1786" y="1452" width="13" height="28"/></g><g transform="translate(2,10) scale(1,1)"><path fill="none" stroke="#000000" d="M 1786 1452 L 1799 1452 L 1799 1480 L 1786 1480 L 1786 1452 Z Z" stroke-miterlimit="10"/></g><g transform="translate(2,10) scale(1,1)"><path fill="none" stroke="#000000" d="M 1793 1480 L 1013 1480" stroke-miterlimit="10" stroke-dasharray="3"/></g><g transform="translate(2,10) scale(1,1)"><path fill="none" stroke="#000000" d="M 1023.1626748576241 1475.7904822439841 L 1013 1480 L 1023.1626748576241 1484.2095177560159" stroke-miterlimit="10"/></g><g transform="translate(2,10) scale(1,1)"><g><path fill="none" stroke="none"/><text fill="#000000" stroke="none" font-family="Arial" font-size="13px" font-style="normal" font-weight="normal" text-decoration="none" x="1362.5" y="1496.5">19 : annuncio</text></g></g><g transform="translate(2,10) scale(1,1)"><path fill="none" stroke="#000000" d="M 1013 1696 L 667 1696" stroke-miterlimit="10" stroke-dasharray="3"/></g><g transform="translate(2,10) scale(1,1)"><path fill="none" stroke="#000000" d="M 677.1626748576241 1691.7904822439841 L 667 1696 L 677.1626748576241 1700.2095177560159" stroke-miterlimit="10"/></g><g transform="translate(2,10) scale(1,1)"><g><path fill="none" stroke="none"/><text fill="#000000" stroke="none" font-family="Arial" font-size="13px" font-style="normal" font-weight="normal" text-decoration="none" x="790.830078125" y="1712.5">20 : done = false</text></g></g><g transform="translate(2,10) scale(1,1)"><path fill="none" stroke="#000000" d="M 1013 1872 L 2058 1872" stroke-miterlimit="10"/></g><g transform="translate(2,10) scale(1,1)"><path fill="#000000" stroke="none" d="M 2047.837325142376 1876.2095177560159 L 2058 1872 L 2047.837325142376 1867.7904822439841"/></g><g transform="translate(2,10) scale(1,1)"><path fill="none" stroke="#000000" d="M 2047.837325142376 1876.2095177560159 L 2058 1872 L 2047.837325142376 1867.7904822439841 L 2047.837325142376 1876.2095177560159" stroke-miterlimit="10"/></g><g transform="translate(2,10) scale(1,1)"><g><path fill="none" stroke="none"/><text fill="#000000" stroke="none" font-family="Arial" font-size="10px" font-style="normal" font-weight="normal" text-decoration="none" x="1480.842529296875" y="1866.5">21 : setFoto(idAnnuncio)</text></g></g><g transform="translate(2,10) scale(1,1)"><rect fill="#ffffff" stroke="none" x="2058" y="1872" width="13" height="28"/></g><g transform="translate(2,10) scale(1,1)"><path fill="none" stroke="#000000" d="M 2058 1872 L 2071 1872 L 2071 1900 L 2058 1900 L 2058 1872 Z Z" stroke-miterlimit="10"/></g><g transform="translate(2,10) scale(1,1)"><path fill="none" stroke="#000000" d="M 1013 1960 L 1786 1960" stroke-miterlimit="10"/></g><g transform="translate(2,10) scale(1,1)"><path fill="#000000" stroke="none" d="M 1775.837325142376 1964.2095177560159 L 1786 1960 L 1775.837325142376 1955.7904822439841"/></g><g transform="translate(2,10) scale(1,1)"><path fill="none" stroke="#000000" d="M 1775.837325142376 1964.2095177560159 L 1786 1960 L 1775.837325142376 1955.7904822439841 L 1775.837325142376 1964.2095177560159" stroke-miterlimit="10"/></g><g transform="translate(2,10) scale(1,1)"><g><path fill="none" stroke="none"/><text fill="#000000" stroke="none" font-family="Arial" font-size="13px" font-style="normal" font-weight="normal" text-decoration="none" x="1335.5" y="1956.5">22 : update(annuncio)</text></g></g><g transform="translate(2,10) scale(1,1)"><rect fill="#ffffff" stroke="none" x="1786" y="1960" width="13" height="136"/></g><g transform="translate(2,10) scale(1,1)"><path fill="none" stroke="#000000" d="M 1786 1960 L 1799 1960 L 1799 2096 L 1786 2096 L 1786 1960 Z Z" stroke-miterlimit="10"/></g><g transform="translate(2,10) scale(1,1)"><path fill="none" stroke="#000000" d="M 1799 1979 L 2403 1979" stroke-miterlimit="10"/></g><g transform="translate(2,10) scale(1,1)"><path fill="#000000" stroke="none" d="M 2392.837325142376 1983.2095177560159 L 2403 1979 L 2392.837325142376 1974.7904822439841"/></g><g transform="translate(2,10) scale(1,1)"><path fill="none" stroke="#000000" d="M 2392.837325142376 1983.2095177560159 L 2403 1979 L 2392.837325142376 1974.7904822439841 L 2392.837325142376 1983.2095177560159" stroke-miterlimit="10"/></g><g transform="translate(2,10) scale(1,1)"><g><path fill="none" stroke="none"/><text fill="#000000" stroke="none" font-family="Arial" font-size="13px" font-style="normal" font-weight="normal" text-decoration="none" x="2082.5" y="1972.5">23 : getSession()</text></g></g><g transform="translate(2,10) scale(1,1)"><rect fill="#ffffff" stroke="none" x="2403" y="1979" width="13" height="37"/></g><g transform="translate(2,10) scale(1,1)"><path fill="none" stroke="#000000" d="M 2403 1979 L 2416 1979 L 2416 2016 L 2403 2016 L 2403 1979 Z Z" stroke-miterlimit="10"/></g><g transform="translate(2,10) scale(1,1)"><path fill="none" stroke="#000000" d="M 2410 2016 L 1799 2016" stroke-miterlimit="10" stroke-dasharray="3"/></g><g transform="translate(2,10) scale(1,1)"><path fill="none" stroke="#000000" d="M 1809.162674857624 2011.7904822439841 L 1799 2016 L 1809.162674857624 2020.2095177560159" stroke-miterlimit="10"/></g><g transform="translate(2,10) scale(1,1)"><g><path fill="none" stroke="none"/><text fill="#000000" stroke="none" font-family="Arial" font-size="13px" font-style="normal" font-weight="normal" text-decoration="none" x="2068.5" y="2032.5">24 : session</text></g></g><g transform="translate(2,10) scale(1,1)"><path fill="none" stroke="#000000" d="M 1793 2096 L 1823 2096 L 1823 2116 L 1799 2116" stroke-miterlimit="10"/></g><g transform="translate(2,10) scale(1,1)"><path fill="#000000" stroke="none" d="M 1809.162674857624 2111.790482243984 L 1799 2116 L 1809.162674857624 2120.209517756016"/></g><g transform="translate(2,10) scale(1,1)"><path fill="none" stroke="#000000" d="M 1809.162674857624 2111.790482243984 L 1799 2116 L 1809.162674857624 2120.209517756016 L 1809.162674857624 2111.790482243984" stroke-miterlimit="10"/></g><g transform="translate(2,10) scale(1,1)"><g><path fill="none" stroke="none"/><text fill="#000000" stroke="none" font-family="Arial" font-size="13px" font-style="normal" font-weight="normal" text-decoration="none" x="1806.5" y="2092.5">25 : closeSession()</text></g></g><g transform="translate(2,10) scale(1,1)"><rect fill="#ffffff" stroke="none" x="1786" y="2116" width="13" height="28"/></g><g transform="translate(2,10) scale(1,1)"><path fill="none" stroke="#000000" d="M 1786 2116 L 1799 2116 L 1799 2144 L 1786 2144 L 1786 2116 Z Z" stroke-miterlimit="10"/></g><g transform="translate(2,10) scale(1,1)"><path fill="none" stroke="#000000" d="M 1793 2144 L 1013 2144" stroke-miterlimit="10" stroke-dasharray="3"/></g><g transform="translate(2,10) scale(1,1)"><path fill="none" stroke="#000000" d="M 1023.1626748576241 2139.790482243984 L 1013 2144 L 1023.1626748576241 2148.209517756016" stroke-miterlimit="10"/></g><g transform="translate(2,10) scale(1,1)"><g><path fill="none" stroke="none"/><text fill="#000000" stroke="none" font-family="Arial" font-size="13px" font-style="normal" font-weight="normal" text-decoration="none" x="1373.788818359375" y="2160.5">26 : result</text></g></g><g transform="translate(2,10) scale(1,1)"><path fill="none" stroke="#000000" d="M 1013 2216 L 1043 2216 L 1043 2236 L 1019 2236" stroke-miterlimit="10"/></g><g transform="translate(2,10) scale(1,1)"><path fill="#000000" stroke="none" d="M 1029.162674857624 2231.790482243984 L 1019 2236 L 1029.162674857624 2240.209517756016"/></g><g transform="translate(2,10) scale(1,1)"><path fill="none" stroke="#000000" d="M 1029.162674857624 2231.790482243984 L 1019 2236 L 1029.162674857624 2240.209517756016 L 1029.162674857624 2231.790482243984" stroke-miterlimit="10"/></g><g transform="translate(2,10) scale(1,1)"><g><path fill="none" stroke="none"/><text fill="#000000" stroke="none" font-family="Arial" font-size="13px" font-style="normal" font-weight="normal" text-decoration="none" x="1053.5" y="2236.5">27 : savePicture(picture)</text></g></g><g transform="translate(2,10) scale(1,1)"><rect fill="#ffffff" stroke="none" x="1006" y="2236" width="13" height="40"/></g><g transform="translate(2,10) scale(1,1)"><path fill="none" stroke="#000000" d="M 1006 2236 L 1019 2236 L 1019 2276 L 1006 2276 L 1006 2236 Z Z" stroke-miterlimit="10"/></g><g transform="translate(2,10) scale(1,1)"><path fill="none" stroke="#000000" d="M 1013 2320 L 667 2320" stroke-miterlimit="10" stroke-dasharray="3"/></g><g transform="translate(2,10) scale(1,1)"><path fill="none" stroke="#000000" d="M 677.1626748576241 2315.790482243984 L 667 2320 L 677.1626748576241 2324.209517756016" stroke-miterlimit="10"/></g><g transform="translate(2,10) scale(1,1)"><g><path fill="none" stroke="none"/><text fill="#000000" stroke="none" font-family="Arial" font-size="13px" font-style="normal" font-weight="normal" text-decoration="none" x="761.223388671875" y="2336.5">28 : done</text></g></g><g transform="translate(2,10) scale(1,1)"><path fill="none" stroke="#000000" d="M 667 2424 L 343 2424" stroke-miterlimit="10" stroke-dasharray="3"/></g><g transform="translate(2,10) scale(1,1)"><path fill="none" stroke="#000000" d="M 353.16267485762415 2419.790482243984 L 343 2424 L 353.16267485762415 2428.209517756016" stroke-miterlimit="10"/></g><g transform="translate(2,10) scale(1,1)"><g><path fill="none" stroke="none"/><text fill="#000000" stroke="none" font-family="Arial" font-size="13px" font-style="normal" font-weight="normal" text-decoration="none" x="477.223388671875" y="2440.5">29 : done</text></g></g><g transform="translate(2,10) scale(1,1)"><path fill="none" stroke="#000000" d="M 343 2608 L 373 2608 L 373 2628 L 349 2628" stroke-miterlimit="10"/></g><g transform="translate(2,10) scale(1,1)"><path fill="#000000" stroke="none" d="M 359.16267485762415 2623.790482243984 L 349 2628 L 359.16267485762415 2632.209517756016"/></g><g transform="translate(2,10) scale(1,1)"><path fill="none" stroke="#000000" d="M 359.16267485762415 2623.790482243984 L 349 2628 L 359.16267485762415 2632.209517756016 L 359.16267485762415 2623.790482243984" stroke-miterlimit="10"/></g><g transform="translate(2,10) scale(1,1)"><g><path fill="none" stroke="none"/><text fill="#000000" stroke="none" font-family="Arial" font-size="13px" font-style="normal" font-weight="normal" text-decoration="none" x="359.5" y="2604.5">30 : MostraErrore</text></g></g><g transform="translate(2,10) scale(1,1)"><rect fill="#ffffff" stroke="none" x="336" y="2628" width="13" height="28"/></g><g transform="translate(2,10) scale(1,1)"><path fill="none" stroke="#000000" d="M 336 2628 L 349 2628 L 349 2656 L 336 2656 L 336 2628 Z Z" stroke-miterlimit="10"/></g></g></svg>