<svg version="1.1" xmlns="http://www.w3.org/2000/svg" xmlns:xlink="http://www.w3.org/1999/xlink" width="2508" height="2164"><defs/><g><g transform="translate(-118,-358) scale(1,1)"><rect fill="#C0C0C0" stroke="none" x="767" y="1551" width="776" height="400" opacity="0.2"/></g><g transform="translate(-118,-358) scale(1,1)"><rect fill="#ffffff" stroke="none" x="760" y="1544" width="776" height="400"/></g><g transform="translate(-118,-358) scale(1,1)"><path fill="none" stroke="#000000" d="M 760 1544 L 1536 1544 L 1536 1944 L 760 1944 L 760 1544 Z Z" stroke-miterlimit="10"/></g><g transform="translate(-118,-358) scale(1,1)"><g><path fill="none" stroke="none"/><text fill="#000000" stroke="none" font-family="Arial" font-size="13px" font-style="normal" font-weight="bold" text-decoration="none" x="1095.247802734375" y="1563.5">Gestione Acquisto</text></g></g><g transform="translate(-118,-358) scale(1,1)"><rect fill="#C0C0C0" stroke="none" x="751" y="2095" width="800" height="424" opacity="0.2"/></g><g transform="translate(-118,-358) scale(1,1)"><rect fill="#ffffff" stroke="none" x="744" y="2088" width="800" height="424"/></g><g transform="translate(-118,-358) scale(1,1)"><path fill="none" stroke="#000000" d="M 744 2088 L 1544 2088 L 1544 2512 L 744 2512 L 744 2088 Z Z" stroke-miterlimit="10"/></g><g transform="translate(-118,-358) scale(1,1)"><g><path fill="none" stroke="none"/><text fill="#000000" stroke="none" font-family="Arial" font-size="13px" font-style="normal" font-weight="bold" text-decoration="none" x="1089.07373046875" y="2107.5">Gestione Annuncio</text></g></g><g transform="translate(-118,-358) scale(1,1)"><path fill="#ffffff" stroke="none" d="M 157.04118625710228 1705.6799999999998 C 157.04118625710228 1700.8861679359998 160.92702858204774 1697 165.720458984375 1697 C 170.51388938670226 1697 174.39973171164772 1700.8861679359998 174.39973171164772 1705.6799999999998 C 174.39973171164772 1710.473832064 170.51388938670226 1714.36 165.720458984375 1714.36 C 160.92702858204774 1714.36 157.04118625710228 1710.473832064 157.04118625710228 1705.6799999999998 Z"/></g><g transform="translate(-118,-358) scale(1,1)"><path fill="none" stroke="#000000" d="M 157.04118625710228 1705.6799999999998 C 157.04118625710228 1700.8861679359998 160.92702858204774 1697 165.720458984375 1697 C 170.51388938670226 1697 174.39973171164772 1700.8861679359998 174.39973171164772 1705.6799999999998 C 174.39973171164772 1710.473832064 170.51388938670226 1714.36 165.720458984375 1714.36 C 160.92702858204774 1714.36 157.04118625710228 1710.473832064 157.04118625710228 1705.6799999999998 Z" stroke-miterlimit="10"/></g><g transform="translate(-118,-358) scale(1,1)"><path fill="none" stroke="#000000" d="M 165.720458984375 1714.36 L 165.720458984375 1731.64" stroke-miterlimit="10"/></g><g transform="translate(-118,-358) scale(1,1)"><path fill="none" stroke="#000000" d="M 156.53064080255683 1720.84 L 174.91027716619317 1720.84" stroke-miterlimit="10"/></g><g transform="translate(-118,-358) scale(1,1)"><path fill="none" stroke="#000000" d="M 165.720458984375 1731.64 L 152.95682262073865 1749" stroke-miterlimit="10"/></g><g transform="translate(-118,-358) scale(1,1)"><path fill="none" stroke="#000000" d="M 165.720458984375 1731.64 L 178.48409534801135 1749" stroke-miterlimit="10"/></g><g transform="translate(-118,-358) scale(1,1)"><g><path fill="none" stroke="none"/><text fill="#000000" stroke="none" font-family="Arial" font-size="13px" font-style="normal" font-weight="bold" text-decoration="none" x="135.369140625" y="1769.5">Produttore</text></g></g><g transform="translate(-118,-358) scale(1,1)"><path fill="#C0C0C0" stroke="none" d="M 903 563 C 903 538.6994688 949.5623808 519 1007 519 C 1064.4376192 519 1111 538.6994688 1111 563 C 1111 587.3005312 1064.4376192 607 1007 607 C 949.5623808 607 903 587.3005312 903 563 Z" opacity="0.2"/></g><g transform="translate(-118,-358) scale(1,1)"><path fill="#ffffff" stroke="none" d="M 896 556 C 896 531.6994688 942.5623808 512 1000 512 C 1057.4376192 512 1104 531.6994688 1104 556 C 1104 580.3005312 1057.4376192 600 1000 600 C 942.5623808 600 896 580.3005312 896 556 Z"/></g><g transform="translate(-118,-358) scale(1,1)"><path fill="none" stroke="#000000" d="M 896 556 C 896 531.6994688 942.5623808 512 1000 512 C 1057.4376192 512 1104 531.6994688 1104 556 C 1104 580.3005312 1057.4376192 600 1000 600 C 942.5623808 600 896 580.3005312 896 556 Z" stroke-miterlimit="10"/></g><g transform="translate(-118,-358) scale(1,1)"><g><path fill="none" stroke="none"/><text fill="#000000" stroke="none" font-family="Arial" font-size="13px" font-style="normal" font-weight="bold" text-decoration="none" x="949.780517578125" y="563">Ricerca Standard</text></g></g><g transform="translate(-118,-358) scale(1,1)"><path fill="#C0C0C0" stroke="none" d="M 1367 883 C 1367 854.2811904 1422.5166848 831 1491 831 C 1559.4833152 831 1615 854.2811904 1615 883 C 1615 911.7188096 1559.4833152 935 1491 935 C 1422.5166848 935 1367 911.7188096 1367 883 Z" opacity="0.2"/></g><g transform="translate(-118,-358) scale(1,1)"><path fill="#ffffff" stroke="none" d="M 1360 876 C 1360 847.2811904 1415.5166848 824 1484 824 C 1552.4833152 824 1608 847.2811904 1608 876 C 1608 904.7188096 1552.4833152 928 1484 928 C 1415.5166848 928 1360 904.7188096 1360 876 Z"/></g><g transform="translate(-118,-358) scale(1,1)"><path fill="none" stroke="#000000" d="M 1360 876 C 1360 847.2811904 1415.5166848 824 1484 824 C 1552.4833152 824 1608 847.2811904 1608 876 C 1608 904.7188096 1552.4833152 928 1484 928 C 1415.5166848 928 1360 904.7188096 1360 876 Z" stroke-miterlimit="10"/></g><g transform="translate(-118,-358) scale(1,1)"><g><path fill="none" stroke="none"/><text fill="#000000" stroke="none" font-family="Arial" font-size="13px" font-style="normal" font-weight="bold" text-decoration="none" x="1433.06005859375" y="883">Ricerca Avanzata</text></g></g><g transform="translate(-118,-358) scale(1,1)"><path fill="#C0C0C0" stroke="none" d="M 271 663 C 271 640.908608 317.5623808 623 375 623 C 432.4376192 623 479 640.908608 479 663 C 479 685.091392 432.4376192 703 375 703 C 317.5623808 703 271 685.091392 271 663 Z" opacity="0.2"/></g><g transform="translate(-118,-358) scale(1,1)"><path fill="#ffffff" stroke="none" d="M 264 656 C 264 633.908608 310.5623808 616 368 616 C 425.4376192 616 472 633.908608 472 656 C 472 678.091392 425.4376192 696 368 696 C 310.5623808 696 264 678.091392 264 656 Z"/></g><g transform="translate(-118,-358) scale(1,1)"><path fill="none" stroke="#000000" d="M 264 656 C 264 633.908608 310.5623808 616 368 616 C 425.4376192 616 472 633.908608 472 656 C 472 678.091392 425.4376192 696 368 696 C 310.5623808 696 264 678.091392 264 656 Z" stroke-miterlimit="10"/></g><g transform="translate(-118,-358) scale(1,1)"><g><path fill="none" stroke="none"/><text fill="#000000" stroke="none" font-family="Arial" font-size="13px" font-style="normal" font-weight="bold" text-decoration="none" x="352.095947265625" y="663">Login</text></g></g><g transform="translate(-118,-358) scale(1,1)"><path fill="#C0C0C0" stroke="none" d="M 375 415 C 375 392.908608 426.93496319999997 375 491 375 C 555.0650368 375 607 392.908608 607 415 C 607 437.091392 555.0650368 455 491 455 C 426.93496319999997 455 375 437.091392 375 415 Z" opacity="0.2"/></g><g transform="translate(-118,-358) scale(1,1)"><path fill="#ffffff" stroke="none" d="M 368 408 C 368 385.908608 419.93496319999997 368 484 368 C 548.0650368 368 600 385.908608 600 408 C 600 430.091392 548.0650368 448 484 448 C 419.93496319999997 448 368 430.091392 368 408 Z"/></g><g transform="translate(-118,-358) scale(1,1)"><path fill="none" stroke="#000000" d="M 368 408 C 368 385.908608 419.93496319999997 368 484 368 C 548.0650368 368 600 385.908608 600 408 C 600 430.091392 548.0650368 448 484 448 C 419.93496319999997 448 368 430.091392 368 408 Z" stroke-miterlimit="10"/></g><g transform="translate(-118,-358) scale(1,1)"><g><path fill="none" stroke="none"/><text fill="#000000" stroke="none" font-family="Arial" font-size="13px" font-style="normal" font-weight="bold" text-decoration="none" x="444.25732421875" y="415">Registrazione</text></g></g><g transform="translate(-118,-358) scale(1,1)"><path fill="#ffffff" stroke="none" d="M 593.4420651633523 585.6800000000001 C 593.4420651633523 580.8861679360001 597.3279074882977 577 602.121337890625 577 C 606.9147682929523 577 610.8006106178977 580.8861679360001 610.8006106178977 585.6800000000001 C 610.8006106178977 590.473832064 606.9147682929523 594.36 602.121337890625 594.36 C 597.3279074882977 594.36 593.4420651633523 590.473832064 593.4420651633523 585.6800000000001 Z"/></g><g transform="translate(-118,-358) scale(1,1)"><path fill="none" stroke="#000000" d="M 593.4420651633523 585.6800000000001 C 593.4420651633523 580.8861679360001 597.3279074882977 577 602.121337890625 577 C 606.9147682929523 577 610.8006106178977 580.8861679360001 610.8006106178977 585.6800000000001 C 610.8006106178977 590.473832064 606.9147682929523 594.36 602.121337890625 594.36 C 597.3279074882977 594.36 593.4420651633523 590.473832064 593.4420651633523 585.6800000000001 Z" stroke-miterlimit="10"/></g><g transform="translate(-118,-358) scale(1,1)"><path fill="none" stroke="#000000" d="M 602.121337890625 594.36 L 602.121337890625 611.64" stroke-miterlimit="10"/></g><g transform="translate(-118,-358) scale(1,1)"><path fill="none" stroke="#000000" d="M 592.9315197088068 600.84 L 611.3111560724432 600.84" stroke-miterlimit="10"/></g><g transform="translate(-118,-358) scale(1,1)"><path fill="none" stroke="#000000" d="M 602.121337890625 611.64 L 589.3577015269886 629" stroke-miterlimit="10"/></g><g transform="translate(-118,-358) scale(1,1)"><path fill="none" stroke="#000000" d="M 602.121337890625 611.64 L 614.8849742542614 629" stroke-miterlimit="10"/></g><g transform="translate(-118,-358) scale(1,1)"><g><path fill="none" stroke="none"/><text fill="#000000" stroke="none" font-family="Arial" font-size="13px" font-style="normal" font-weight="bold" text-decoration="none" x="575.0263671875" y="649.5">Visitatore</text></g></g><g transform="translate(-118,-358) scale(1,1)"><path fill="#ffffff" stroke="none" d="M 1105.9947995383523 921.6800000000001 C 1105.9947995383523 916.8861679360001 1109.8806418632978 913 1114.674072265625 913 C 1119.4675026679522 913 1123.3533449928977 916.8861679360001 1123.3533449928977 921.6800000000001 C 1123.3533449928977 926.473832064 1119.4675026679522 930.36 1114.674072265625 930.36 C 1109.8806418632978 930.36 1105.9947995383523 926.473832064 1105.9947995383523 921.6800000000001 Z"/></g><g transform="translate(-118,-358) scale(1,1)"><path fill="none" stroke="#000000" d="M 1105.9947995383523 921.6800000000001 C 1105.9947995383523 916.8861679360001 1109.8806418632978 913 1114.674072265625 913 C 1119.4675026679522 913 1123.3533449928977 916.8861679360001 1123.3533449928977 921.6800000000001 C 1123.3533449928977 926.473832064 1119.4675026679522 930.36 1114.674072265625 930.36 C 1109.8806418632978 930.36 1105.9947995383523 926.473832064 1105.9947995383523 921.6800000000001 Z" stroke-miterlimit="10"/></g><g transform="translate(-118,-358) scale(1,1)"><path fill="none" stroke="#000000" d="M 1114.674072265625 930.36 L 1114.674072265625 947.64" stroke-miterlimit="10"/></g><g transform="translate(-118,-358) scale(1,1)"><path fill="none" stroke="#000000" d="M 1105.4842540838067 936.84 L 1123.8638904474433 936.84" stroke-miterlimit="10"/></g><g transform="translate(-118,-358) scale(1,1)"><path fill="none" stroke="#000000" d="M 1114.674072265625 947.64 L 1101.9104359019886 965" stroke-miterlimit="10"/></g><g transform="translate(-118,-358) scale(1,1)"><path fill="none" stroke="#000000" d="M 1114.674072265625 947.64 L 1127.4377086292614 965" stroke-miterlimit="10"/></g><g transform="translate(-118,-358) scale(1,1)"><g><path fill="none" stroke="none"/><text fill="#000000" stroke="none" font-family="Arial" font-size="13px" font-style="normal" font-weight="bold" text-decoration="none" x="1064.0927734375" y="985.5">Utente Registrato</text></g></g><g transform="translate(-118,-358) scale(1,1)"><path fill="none" stroke="#000000" d="M 1174 939 L 1359 901" stroke-miterlimit="10"/></g><g transform="translate(-118,-358) scale(1,1)"><path fill="none" stroke="#000000" d="M 1349.8921345814108 907.1682078042869 L 1359 901 L 1348.198185034202 898.9213481665602" stroke-miterlimit="10"/></g><g transform="translate(-118,-358) scale(1,1)"><path fill="none" stroke="#000000" d="M 579 575 L 507 449" stroke-miterlimit="10"/></g><g transform="translate(-118,-358) scale(1,1)"><path fill="none" stroke="#000000" d="M 515.6969836380393 455.7351670803088 L 507 449 L 508.3872137914153 459.91217842123683" stroke-miterlimit="10"/></g><g transform="translate(-118,-358) scale(1,1)"><path fill="none" stroke="#000000" d="M 567 621 L 473 638" stroke-miterlimit="10"/></g><g transform="translate(-118,-358) scale(1,1)"><path fill="none" stroke="#000000" d="M 482.25130463875195 632.0490872564785 L 473 638 L 483.74959100007754 640.3337294896907" stroke-miterlimit="10"/></g><g transform="translate(-118,-358) scale(1,1)"><path fill="none" stroke="#000000" d="M 637 610 L 895 572" stroke-miterlimit="10"/></g><g transform="translate(-118,-358) scale(1,1)"><path fill="none" stroke="#000000" d="M 885.559183952759 577.6454399617884 L 895 572 L 884.332406073299 569.3162638328232" stroke-miterlimit="10"/></g><g transform="translate(-118,-358) scale(1,1)"><path fill="#ffffff" stroke="none" d="M 2053.7152585227273 1681.6799999999998 C 2053.7152585227273 1676.8861679359998 2057.6011008476726 1673 2062.39453125 1673 C 2067.1879616523274 1673 2071.0738039772727 1676.8861679359998 2071.0738039772727 1681.6799999999998 C 2071.0738039772727 1686.473832064 2067.1879616523274 1690.36 2062.39453125 1690.36 C 2057.6011008476726 1690.36 2053.7152585227273 1686.473832064 2053.7152585227273 1681.6799999999998 Z"/></g><g transform="translate(-118,-358) scale(1,1)"><path fill="none" stroke="#000000" d="M 2053.7152585227273 1681.6799999999998 C 2053.7152585227273 1676.8861679359998 2057.6011008476726 1673 2062.39453125 1673 C 2067.1879616523274 1673 2071.0738039772727 1676.8861679359998 2071.0738039772727 1681.6799999999998 C 2071.0738039772727 1686.473832064 2067.1879616523274 1690.36 2062.39453125 1690.36 C 2057.6011008476726 1690.36 2053.7152585227273 1686.473832064 2053.7152585227273 1681.6799999999998 Z" stroke-miterlimit="10"/></g><g transform="translate(-118,-358) scale(1,1)"><path fill="none" stroke="#000000" d="M 2062.39453125 1690.36 L 2062.39453125 1707.64" stroke-miterlimit="10"/></g><g transform="translate(-118,-358) scale(1,1)"><path fill="none" stroke="#000000" d="M 2053.2047130681817 1696.84 L 2071.5843494318183 1696.84" stroke-miterlimit="10"/></g><g transform="translate(-118,-358) scale(1,1)"><path fill="none" stroke="#000000" d="M 2062.39453125 1707.64 L 2049.6308948863634 1725" stroke-miterlimit="10"/></g><g transform="translate(-118,-358) scale(1,1)"><path fill="none" stroke="#000000" d="M 2062.39453125 1707.64 L 2075.1581676136366 1725" stroke-miterlimit="10"/></g><g transform="translate(-118,-358) scale(1,1)"><g><path fill="none" stroke="none"/><text fill="#000000" stroke="none" font-family="Arial" font-size="13px" font-style="normal" font-weight="bold" text-decoration="none" x="2023.37548828125" y="1745.5">Consumatore</text></g></g><g transform="translate(-118,-358) scale(1,1)"><path fill="#C0C0C0" stroke="none" d="M 2159 1927 C 2159 1900.4903296 2218.0984064 1879 2291 1879 C 2363.9015936 1879 2423 1900.4903296 2423 1927 C 2423 1953.5096704 2363.9015936 1975 2291 1975 C 2218.0984064 1975 2159 1953.5096704 2159 1927 Z" opacity="0.2"/></g><g transform="translate(-118,-358) scale(1,1)"><path fill="#ffffff" stroke="none" d="M 2152 1920 C 2152 1893.4903296 2211.0984064 1872 2284 1872 C 2356.9015936 1872 2416 1893.4903296 2416 1920 C 2416 1946.5096704 2356.9015936 1968 2284 1968 C 2211.0984064 1968 2152 1946.5096704 2152 1920 Z"/></g><g transform="translate(-118,-358) scale(1,1)"><path fill="none" stroke="#000000" d="M 2152 1920 C 2152 1893.4903296 2211.0984064 1872 2284 1872 C 2356.9015936 1872 2416 1893.4903296 2416 1920 C 2416 1946.5096704 2356.9015936 1968 2284 1968 C 2211.0984064 1968 2152 1946.5096704 2152 1920 Z" stroke-miterlimit="10"/></g><g transform="translate(-118,-358) scale(1,1)"><g><path fill="none" stroke="none"/><text fill="#000000" stroke="none" font-family="Arial" font-size="13px" font-style="normal" font-weight="bold" text-decoration="none" x="2234.859619140625" y="1927">Effettua Acquisto</text></g></g><g transform="translate(-118,-358) scale(1,1)"><path fill="#C0C0C0" stroke="none" d="M 2199 2151 C 2199 2128.908608 2256.3075456 2111 2327 2111 C 2397.6924544 2111 2455 2128.908608 2455 2151 C 2455 2173.091392 2397.6924544 2191 2327 2191 C 2256.3075456 2191 2199 2173.091392 2199 2151 Z" opacity="0.2"/></g><g transform="translate(-118,-358) scale(1,1)"><path fill="#ffffff" stroke="none" d="M 2192 2144 C 2192 2121.908608 2249.3075456 2104 2320 2104 C 2390.6924544 2104 2448 2121.908608 2448 2144 C 2448 2166.091392 2390.6924544 2184 2320 2184 C 2249.3075456 2184 2192 2166.091392 2192 2144 Z"/></g><g transform="translate(-118,-358) scale(1,1)"><path fill="none" stroke="#000000" d="M 2192 2144 C 2192 2121.908608 2249.3075456 2104 2320 2104 C 2390.6924544 2104 2448 2121.908608 2448 2144 C 2448 2166.091392 2390.6924544 2184 2320 2184 C 2249.3075456 2184 2192 2166.091392 2192 2144 Z" stroke-miterlimit="10"/></g><g transform="translate(-118,-358) scale(1,1)"><g><path fill="none" stroke="none"/><text fill="#000000" stroke="none" font-family="Arial" font-size="13px" font-style="normal" font-weight="bold" text-decoration="none" x="2256.041015625" y="2151">Convalida Pagamento</text></g></g><g transform="translate(-118,-358) scale(1,1)"><path fill="none" stroke="#000000" d="M 2292 1969 L 2313 2103" stroke-miterlimit="10" stroke-dasharray="3"/></g><g transform="translate(-118,-358) scale(1,1)"><path fill="none" stroke="#000000" d="M 2307.267788920136 2093.6116158932496 L 2313 2103 L 2315.5853047405026 2092.3081246079682" stroke-miterlimit="10"/></g><g transform="translate(-118,-358) scale(1,1)"><g><path fill="none" stroke="none"/><text fill="#000000" stroke="none" font-family="Arial" font-size="13px" font-style="normal" font-weight="normal" text-decoration="none" x="2303.5" y="2037.5">«include»</text></g></g><g transform="translate(-118,-358) scale(1,1)"><path fill="#C0C0C0" stroke="none" d="M 831 2267 C 831 2247.1177472 893.680128 2231 971 2231 C 1048.319872 2231 1111 2247.1177472 1111 2267 C 1111 2286.8822528 1048.319872 2303 971 2303 C 893.680128 2303 831 2286.8822528 831 2267 Z" opacity="0.2"/></g><g transform="translate(-118,-358) scale(1,1)"><path fill="#ffffff" stroke="none" d="M 824 2260 C 824 2240.1177472 886.680128 2224 964 2224 C 1041.319872 2224 1104 2240.1177472 1104 2260 C 1104 2279.8822528 1041.319872 2296 964 2296 C 886.680128 2296 824 2279.8822528 824 2260 Z"/></g><g transform="translate(-118,-358) scale(1,1)"><path fill="none" stroke="#000000" d="M 824 2260 C 824 2240.1177472 886.680128 2224 964 2224 C 1041.319872 2224 1104 2240.1177472 1104 2260 C 1104 2279.8822528 1041.319872 2296 964 2296 C 886.680128 2296 824 2279.8822528 824 2260 Z" stroke-miterlimit="10"/></g><g transform="translate(-118,-358) scale(1,1)"><g><path fill="none" stroke="none"/><text fill="#000000" stroke="none" font-family="Arial" font-size="13px" font-style="normal" font-weight="bold" text-decoration="none" x="876.91650390625" y="2267">Gestione Annuncio Produttore</text></g></g><g transform="translate(-118,-358) scale(1,1)"><path fill="#C0C0C0" stroke="none" d="M 2271 1563 C 2271 1538.6994688 2349.7978752 1519 2447 1519 C 2544.2021248 1519 2623 1538.6994688 2623 1563 C 2623 1587.3005312 2544.2021248 1607 2447 1607 C 2349.7978752 1607 2271 1587.3005312 2271 1563 Z" opacity="0.2"/></g><g transform="translate(-118,-358) scale(1,1)"><path fill="#ffffff" stroke="none" d="M 2264 1556 C 2264 1531.6994688 2342.7978752 1512 2440 1512 C 2537.2021248 1512 2616 1531.6994688 2616 1556 C 2616 1580.3005312 2537.2021248 1600 2440 1600 C 2342.7978752 1600 2264 1580.3005312 2264 1556 Z"/></g><g transform="translate(-118,-358) scale(1,1)"><path fill="none" stroke="#000000" d="M 2264 1556 C 2264 1531.6994688 2342.7978752 1512 2440 1512 C 2537.2021248 1512 2616 1531.6994688 2616 1556 C 2616 1580.3005312 2537.2021248 1600 2440 1600 C 2342.7978752 1600 2264 1580.3005312 2264 1556 Z" stroke-miterlimit="10"/></g><g transform="translate(-118,-358) scale(1,1)"><g><path fill="none" stroke="none"/><text fill="#000000" stroke="none" font-family="Arial" font-size="13px" font-style="normal" font-weight="bold" text-decoration="none" x="2348.95556640625" y="1563">Gestione Rubrica Consumatore</text></g></g><g transform="translate(-118,-358) scale(1,1)"><path fill="#C0C0C0" stroke="none" d="M 815 1742.5 C 815 1716.266472 881.037992 1695 962.5 1695 C 1043.962008 1695 1110 1716.266472 1110 1742.5 C 1110 1768.733528 1043.962008 1790 962.5 1790 C 881.037992 1790 815 1768.733528 815 1742.5 Z" opacity="0.2"/></g><g transform="translate(-118,-358) scale(1,1)"><path fill="#ffffff" stroke="none" d="M 808 1735.5 C 808 1709.266472 874.037992 1688 955.5 1688 C 1036.962008 1688 1103 1709.266472 1103 1735.5 C 1103 1761.733528 1036.962008 1783 955.5 1783 C 874.037992 1783 808 1761.733528 808 1735.5 Z"/></g><g transform="translate(-118,-358) scale(1,1)"><path fill="none" stroke="#000000" d="M 808 1735.5 C 808 1709.266472 874.037992 1688 955.5 1688 C 1036.962008 1688 1103 1709.266472 1103 1735.5 C 1103 1761.733528 1036.962008 1783 955.5 1783 C 874.037992 1783 808 1761.733528 808 1735.5 Z" stroke-miterlimit="10"/></g><g transform="translate(-118,-358) scale(1,1)"><g><path fill="none" stroke="none"/><text fill="#000000" stroke="none" font-family="Arial" font-size="13px" font-style="normal" font-weight="bold" text-decoration="none" x="878.182373046875" y="1742.5">Gestione Ordini Produttore</text></g></g><g transform="translate(-118,-358) scale(1,1)"><path fill="#C0C0C0" stroke="none" d="M 1159 1798.5 C 1159 1772.266472 1230.4105744 1751 1318.5 1751 C 1406.5894256 1751 1478 1772.266472 1478 1798.5 C 1478 1824.733528 1406.5894256 1846 1318.5 1846 C 1230.4105744 1846 1159 1824.733528 1159 1798.5 Z" opacity="0.2"/></g><g transform="translate(-118,-358) scale(1,1)"><path fill="#ffffff" stroke="none" d="M 1152 1791.5 C 1152 1765.266472 1223.4105744 1744 1311.5 1744 C 1399.5894256 1744 1471 1765.266472 1471 1791.5 C 1471 1817.733528 1399.5894256 1839 1311.5 1839 C 1223.4105744 1839 1152 1817.733528 1152 1791.5 Z"/></g><g transform="translate(-118,-358) scale(1,1)"><path fill="none" stroke="#000000" d="M 1152 1791.5 C 1152 1765.266472 1223.4105744 1744 1311.5 1744 C 1399.5894256 1744 1471 1765.266472 1471 1791.5 C 1471 1817.733528 1399.5894256 1839 1311.5 1839 C 1223.4105744 1839 1152 1817.733528 1152 1791.5 Z" stroke-miterlimit="10"/></g><g transform="translate(-118,-358) scale(1,1)"><g><path fill="none" stroke="none"/><text fill="#000000" stroke="none" font-family="Arial" font-size="13px" font-style="normal" font-weight="bold" text-decoration="none" x="1225.5146484375" y="1798.5">Gestione Ordini Consumatore</text></g></g><g transform="translate(-118,-358) scale(1,1)"><path fill="#C0C0C0" stroke="none" d="M 1143 2355 C 1143 2335.1177472 1218.2161536 2319 1311 2319 C 1403.7838464 2319 1479 2335.1177472 1479 2355 C 1479 2374.8822528 1403.7838464 2391 1311 2391 C 1218.2161536 2391 1143 2374.8822528 1143 2355 Z" opacity="0.2"/></g><g transform="translate(-118,-358) scale(1,1)"><path fill="#ffffff" stroke="none" d="M 1136 2348 C 1136 2328.1177472 1211.2161536 2312 1304 2312 C 1396.7838464 2312 1472 2328.1177472 1472 2348 C 1472 2367.8822528 1396.7838464 2384 1304 2384 C 1211.2161536 2384 1136 2367.8822528 1136 2348 Z"/></g><g transform="translate(-118,-358) scale(1,1)"><path fill="none" stroke="#000000" d="M 1136 2348 C 1136 2328.1177472 1211.2161536 2312 1304 2312 C 1396.7838464 2312 1472 2328.1177472 1472 2348 C 1472 2367.8822528 1396.7838464 2384 1304 2384 C 1211.2161536 2384 1136 2367.8822528 1136 2348 Z" stroke-miterlimit="10"/></g><g transform="translate(-118,-358) scale(1,1)"><g><path fill="none" stroke="none"/><text fill="#000000" stroke="none" font-family="Arial" font-size="13px" font-style="normal" font-weight="bold" text-decoration="none" x="1206.439697265625" y="2355">Ispeziona Annuncio Consumatore</text></g></g><g transform="translate(-118,-358) scale(1,1)"><path fill="none" stroke="#000000" d="M 204 1735 L 807 1735" stroke-miterlimit="10"/></g><g transform="translate(-118,-358) scale(1,1)"><path fill="none" stroke="#000000" d="M 796.8373251423759 1739.2095177560159 L 807 1735 L 796.8373251423758 1730.7904822439841" stroke-miterlimit="10"/></g><g transform="translate(-118,-358) scale(1,1)"><path fill="none" stroke="#000000" d="M 204 1761 L 908 2223" stroke-miterlimit="10"/></g><g transform="translate(-118,-358) scale(1,1)"><path fill="none" stroke="#000000" d="M 897.1939378843756 2220.943541502177 L 908 2223 L 901.8130959491583 2213.9048244510795" stroke-miterlimit="10"/></g><g transform="translate(-118,-358) scale(1,1)"><path fill="none" stroke="#000000" d="M 2015 1716 L 1472 1774" stroke-miterlimit="10"/></g><g transform="translate(-118,-358) scale(1,1)"><path fill="none" stroke="#000000" d="M 1481.6580999623968 1768.7349164188636 L 1472 1774 L 1482.5522842805237 1777.1063316730529" stroke-miterlimit="10"/></g><g transform="translate(-118,-358) scale(1,1)"><path fill="none" stroke="#000000" d="M 2015 1750 L 1348 2311" stroke-miterlimit="10"/></g><g transform="translate(-118,-358) scale(1,1)"><path fill="none" stroke="#000000" d="M 1353.0679064399517 2301.2369920456913 L 1348 2311 L 1358.4870401393787 2307.680061880839" stroke-miterlimit="10"/></g><g transform="translate(-118,-358) scale(1,1)"><path fill="none" stroke="#000000" d="M 2106 1752 L 2232 1871" stroke-miterlimit="10"/></g><g transform="translate(-118,-358) scale(1,1)"><path fill="none" stroke="#000000" d="M 2221.721247759711 1867.0824430594123 L 2232 1871 L 2227.501955667129 1860.9616935103809" stroke-miterlimit="10"/></g><g transform="translate(-118,-358) scale(1,1)"><path fill="none" stroke="#000000" d="M 2110 1691 L 2330 1601" stroke-miterlimit="10"/></g><g transform="translate(-118,-358) scale(1,1)"><path fill="none" stroke="#000000" d="M 2322.1878289056895 1608.744028847649 L 2330 1601 L 2319.0001055315465 1600.9518161553" stroke-miterlimit="10"/></g><g transform="translate(-118,-358) scale(1,1)"><path fill="none" stroke="#000000" d="M 168 1696 L 168 1192 L 1088 1192 L 1088 991" stroke-miterlimit="10"/></g><g transform="translate(-118,-358) scale(1,1)"><path fill="#FFFFFF" stroke="none" d="M 1096.419035512032 1011.3253497152483 L 1088 991 L 1079.580964487968 1011.3253497152483"/></g><g transform="translate(-118,-358) scale(1,1)"><path fill="none" stroke="#000000" d="M 1096.419035512032 1011.3253497152483 L 1088 991 L 1079.580964487968 1011.3253497152483 L 1096.419035512032 1011.3253497152483" stroke-miterlimit="10"/></g><g transform="translate(-118,-358) scale(1,1)"><path fill="none" stroke="#000000" d="M 2064 1672 L 2064 1192 L 1136 1192 L 1136 991" stroke-miterlimit="10"/></g><g transform="translate(-118,-358) scale(1,1)"><path fill="#FFFFFF" stroke="none" d="M 1144.419035512032 1011.3253497152483 L 1136 991 L 1127.580964487968 1011.3253497152483"/></g><g transform="translate(-118,-358) scale(1,1)"><path fill="none" stroke="#000000" d="M 1144.419035512032 1011.3253497152483 L 1136 991 L 1127.580964487968 1011.3253497152483 L 1144.419035512032 1011.3253497152483" stroke-miterlimit="10"/></g><g transform="translate(-118,-358) scale(1,1)"><path fill="none" stroke="#000000" d="M 1404 823 L 1068 601" stroke-miterlimit="10" stroke-dasharray="3"/></g><g transform="translate(-118,-358) scale(1,1)"><path fill="none" stroke="#000000" d="M 1078.799605833102 603.0900990047435 L 1068 601 L 1074.1585513391228 610.1143976983336" stroke-miterlimit="10"/></g><g transform="translate(-118,-358) scale(1,1)"><g><path fill="none" stroke="none"/><text fill="#000000" stroke="none" font-family="Arial" font-size="13px" font-style="normal" font-weight="normal" text-decoration="none" x="1191.5" y="743.5">«include»</text></g></g></g></svg>